<svg width="80" height="16" viewBox="0 0 80 16" fill="none" xmlns="http://www.w3.org/2000/svg">
<path d="M8.27563 11.9209L11.4281 13.9179C11.8311 14.1729 12.3311 13.7934 12.2116 13.3229L11.3011 9.74042C11.2754 9.64063 11.2784 9.53561 11.3097 9.43743C11.341 9.33925 11.3994 9.2519 11.4781 9.18542L14.3051 6.83292C14.6761 6.52392 14.4851 5.90742 14.0076 5.87642L10.3161 5.63642C10.2167 5.62937 10.1214 5.59424 10.0412 5.53511C9.961 5.47598 9.89925 5.39528 9.86313 5.30242L8.48613 1.83542C8.44864 1.73689 8.38208 1.65209 8.29528 1.59225C8.20849 1.53241 8.10555 1.50037 8.00013 1.50037C7.89471 1.50037 7.79177 1.53241 7.70498 1.59225C7.61818 1.65209 7.55163 1.73689 7.51413 1.83542L6.13713 5.30242C6.10109 5.39538 6.03937 5.47618 5.95916 5.5354C5.87896 5.59462 5.78358 5.62983 5.68413 5.63692L1.99263 5.87692C1.51563 5.90742 1.32363 6.52392 1.69513 6.83292L4.52213 9.18592C4.60079 9.25236 4.65911 9.33962 4.69042 9.4377C4.72173 9.53578 4.72475 9.64071 4.69913 9.74042L3.85513 13.0629C3.71163 13.6274 4.31213 14.0829 4.79513 13.7764L7.72513 11.9209C7.80748 11.8686 7.90305 11.8408 8.00063 11.8408C8.09822 11.8408 8.19378 11.8686 8.27613 11.9209H8.27563Z" fill="#FF6316"/>
<path d="M24.2756 11.9209L27.4281 13.9179C27.8311 14.1729 28.3311 13.7934 28.2116 13.3229L27.3011 9.74042C27.2754 9.64063 27.2784 9.53561 27.3097 9.43743C27.341 9.33925 27.3994 9.2519 27.4781 9.18542L30.3051 6.83292C30.6761 6.52392 30.4851 5.90742 30.0076 5.87642L26.3161 5.63642C26.2167 5.62937 26.1214 5.59424 26.0412 5.53511C25.961 5.47598 25.8993 5.39528 25.8631 5.30242L24.4861 1.83542C24.4486 1.73689 24.3821 1.65209 24.2953 1.59225C24.2085 1.53241 24.1056 1.50037 24.0001 1.50037C23.8947 1.50037 23.7918 1.53241 23.705 1.59225C23.6182 1.65209 23.5516 1.73689 23.5141 1.83542L22.1371 5.30242C22.1011 5.39538 22.0394 5.47617 21.9592 5.5354C21.879 5.59462 21.7836 5.62983 21.6841 5.63692L17.9926 5.87692C17.5156 5.90742 17.3236 6.52392 17.6951 6.83292L20.5221 9.18592C20.6008 9.25236 20.6591 9.33962 20.6904 9.4377C20.7217 9.53578 20.7247 9.64071 20.6991 9.74042L19.8551 13.0629C19.7116 13.6274 20.3121 14.0829 20.7951 13.7764L23.7251 11.9209C23.8075 11.8686 23.903 11.8408 24.0006 11.8408C24.0982 11.8408 24.1938 11.8686 24.2761 11.9209H24.2756Z" fill="#FF6316"/>
<path d="M40.2756 11.9209L43.4281 13.9179C43.8311 14.1729 44.3311 13.7934 44.2116 13.3229L43.3011 9.74042C43.2754 9.64063 43.2784 9.53561 43.3097 9.43743C43.341 9.33925 43.3994 9.2519 43.4781 9.18542L46.3051 6.83292C46.6761 6.52392 46.4851 5.90742 46.0076 5.87642L42.3161 5.63642C42.2167 5.62937 42.1214 5.59424 42.0412 5.53511C41.961 5.47598 41.8993 5.39528 41.8631 5.30242L40.4861 1.83542C40.4486 1.73689 40.3821 1.65209 40.2953 1.59225C40.2085 1.53241 40.1056 1.50037 40.0001 1.50037C39.8947 1.50037 39.7918 1.53241 39.705 1.59225C39.6182 1.65209 39.5516 1.73689 39.5141 1.83542L38.1371 5.30242C38.1011 5.39538 38.0394 5.47617 37.9592 5.5354C37.879 5.59462 37.7836 5.62983 37.6841 5.63692L33.9926 5.87692C33.5156 5.90742 33.3236 6.52392 33.6951 6.83292L36.5221 9.18592C36.6008 9.25236 36.6591 9.33962 36.6904 9.4377C36.7217 9.53578 36.7247 9.64071 36.6991 9.74042L35.8551 13.0629C35.7116 13.6274 36.3121 14.0829 36.7951 13.7764L39.7251 11.9209C39.8075 11.8686 39.903 11.8408 40.0006 11.8408C40.0982 11.8408 40.1938 11.8686 40.2761 11.9209H40.2756Z" fill="#FF6316"/>
<path d="M56.2756 11.9209L59.4281 13.9179C59.8311 14.1729 60.3311 13.7934 60.2116 13.3229L59.3011 9.74042C59.2754 9.64063 59.2784 9.53561 59.3097 9.43743C59.341 9.33925 59.3994 9.2519 59.4781 9.18542L62.3051 6.83292C62.6761 6.52392 62.4851 5.90742 62.0076 5.87642L58.3161 5.63642C58.2167 5.62937 58.1214 5.59424 58.0412 5.53511C57.961 5.47598 57.8993 5.39528 57.8631 5.30242L56.4861 1.83542C56.4486 1.73689 56.3821 1.65209 56.2953 1.59225C56.2085 1.53241 56.1056 1.50037 56.0001 1.50037C55.8947 1.50037 55.7918 1.53241 55.705 1.59225C55.6182 1.65209 55.5516 1.73689 55.5141 1.83542L54.1371 5.30242C54.1011 5.39538 54.0394 5.47617 53.9592 5.5354C53.879 5.59462 53.7836 5.62983 53.6841 5.63692L49.9926 5.87692C49.5156 5.90742 49.3236 6.52392 49.6951 6.83292L52.5221 9.18592C52.6008 9.25236 52.6591 9.33962 52.6904 9.4377C52.7217 9.53578 52.7247 9.64071 52.6991 9.74042L51.8551 13.0629C51.7116 13.6274 52.3121 14.0829 52.7951 13.7764L55.7251 11.9209C55.8075 11.8686 55.903 11.8408 56.0006 11.8408C56.0982 11.8408 56.1938 11.8686 56.2761 11.9209H56.2756Z" fill="#FF6316"/>
<path d="M72.2756 11.9209L75.4281 13.9179C75.8311 14.1729 76.3311 13.7934 76.2116 13.3229L75.3011 9.74042C75.2754 9.64063 75.2784 9.53561 75.3097 9.43743C75.341 9.33925 75.3994 9.2519 75.4781 9.18542L78.3051 6.83292C78.6761 6.52392 78.4851 5.90742 78.0076 5.87642L74.3161 5.63642C74.2167 5.62937 74.1214 5.59424 74.0412 5.53511C73.961 5.47598 73.8993 5.39528 73.8631 5.30242L72.4861 1.83542C72.4486 1.73689 72.3821 1.65209 72.2953 1.59225C72.2085 1.53241 72.1056 1.50037 72.0001 1.50037C71.8947 1.50037 71.7918 1.53241 71.705 1.59225C71.6182 1.65209 71.5516 1.73689 71.5141 1.83542L70.1371 5.30242C70.1011 5.39538 70.0394 5.47617 69.9592 5.5354C69.879 5.59462 69.7836 5.62983 69.6841 5.63692L65.9926 5.87692C65.5156 5.90742 65.3236 6.52392 65.6951 6.83292L68.5221 9.18592C68.6008 9.25236 68.6591 9.33962 68.6904 9.4377C68.7217 9.53578 68.7247 9.64071 68.6991 9.74042L67.8551 13.0629C67.7116 13.6274 68.3121 14.0829 68.7951 13.7764L71.7251 11.9209C71.8075 11.8686 71.903 11.8408 72.0006 11.8408C72.0982 11.8408 72.1938 11.8686 72.2761 11.9209H72.2756Z" fill="#FF6316"/>
</svg>
