<svg width="32" height="32" viewBox="0 0 32 32" fill="none" xmlns="http://www.w3.org/2000/svg">
<path d="M16.0024 28.0548C12.7224 28.0548 12.3358 28.0375 11.0558 27.9815C10.0576 27.9487 9.07235 27.7458 8.14244 27.3815C7.34668 27.0718 6.62401 26.6 6.02033 25.9961C5.41665 25.3922 4.94515 24.6694 4.63577 23.8735C4.28552 22.9402 4.0966 21.9542 4.07711 20.9575C4.00244 19.6802 4.00244 19.2615 4.00244 16.0068C4.00244 12.7175 4.01977 12.3335 4.07711 11.0602C4.09702 10.0649 4.28594 9.08018 4.63577 8.14817C4.9448 7.35128 5.41662 6.62761 6.0211 6.02335C6.62558 5.4191 7.34944 4.94756 8.14644 4.63884C9.07797 4.28711 10.0629 4.09769 11.0584 4.07884C12.3318 4.00684 12.7504 4.00684 16.0024 4.00684C19.3091 4.00684 19.6891 4.02417 20.9491 4.07884C21.9464 4.0975 22.9358 4.28684 23.8691 4.63884C24.6659 4.94791 25.3896 5.41958 25.994 6.02379C26.5984 6.628 27.0704 7.35149 27.3798 8.14817C27.7358 9.09484 27.9264 10.0948 27.9411 11.1042C28.0158 12.3815 28.0158 12.7988 28.0158 16.0522C28.0158 19.3055 27.9971 19.7322 27.9411 20.9948C27.9212 21.9924 27.7318 22.9794 27.3811 23.9135C27.0709 24.7099 26.5986 25.4332 25.994 26.0373C25.3894 26.6414 24.6658 27.1133 23.8691 27.4228C22.9358 27.7722 21.9504 27.9615 20.9544 27.9815C19.6811 28.0548 19.2638 28.0548 16.0024 28.0548ZM15.9571 6.1175C12.6958 6.1175 12.3571 6.1335 11.0838 6.19084C10.3233 6.20078 9.57018 6.34103 8.85711 6.6055C8.33702 6.80486 7.86447 7.11098 7.46993 7.50414C7.07539 7.89731 6.76761 8.36878 6.56644 8.88817C6.29977 9.60817 6.15977 10.3695 6.15177 11.1375C6.08111 12.4295 6.08111 12.7682 6.08111 16.0068C6.08111 19.2068 6.09311 19.5948 6.15177 20.8788C6.16377 21.6388 6.30377 22.3922 6.56644 23.1055C6.97444 24.1548 7.80644 24.9842 8.85844 25.3868C9.57059 25.653 10.3236 25.7933 11.0838 25.8015C12.3744 25.8762 12.7144 25.8762 15.9571 25.8762C19.2278 25.8762 19.5664 25.8602 20.8291 25.8015C21.5896 25.7923 22.3429 25.652 23.0558 25.3868C23.5731 25.186 24.0429 24.8796 24.4355 24.4873C24.828 24.095 25.1346 23.6254 25.3358 23.1082C25.6024 22.3882 25.7424 21.6255 25.7504 20.8575H25.7651C25.8224 19.5828 25.8224 19.2428 25.8224 15.9855C25.8224 12.7282 25.8078 12.3855 25.7504 11.1122C25.7384 10.3528 25.5982 9.60088 25.3358 8.88817C25.1351 8.37023 24.8287 7.89977 24.4361 7.50677C24.0436 7.11376 23.5735 6.80682 23.0558 6.6055C22.3424 6.33884 21.5891 6.20017 20.8291 6.19084C19.5398 6.1175 19.2024 6.1175 15.9571 6.1175ZM16.0024 22.1655C14.7832 22.1663 13.5911 21.8055 12.577 21.1287C11.5628 20.4519 10.7721 19.4896 10.3049 18.3634C9.83773 17.2373 9.71502 15.9978 9.9523 14.8019C10.1896 13.606 10.7762 12.5073 11.6379 11.6448C12.4997 10.7823 13.5979 10.1947 14.7936 9.9564C15.9893 9.71808 17.2289 9.83973 18.3555 10.3059C19.482 10.7722 20.445 11.562 21.1227 12.5756C21.8003 13.5892 22.1622 14.7809 22.1624 16.0002C22.1603 17.6337 21.5108 19.1999 20.3562 20.3555C19.2016 21.5111 17.636 22.162 16.0024 22.1655ZM16.0024 11.9975C15.2113 11.9975 14.438 12.2321 13.7802 12.6716C13.1224 13.1111 12.6097 13.7359 12.3069 14.4668C12.0042 15.1977 11.925 16.0019 12.0793 16.7779C12.2336 17.5538 12.6146 18.2665 13.174 18.8259C13.7334 19.3853 14.4462 19.7663 15.2221 19.9206C15.998 20.075 16.8023 19.9958 17.5332 19.693C18.2641 19.3903 18.8888 18.8776 19.3283 18.2198C19.7678 17.562 20.0024 16.7886 20.0024 15.9975C20 14.9374 19.5778 13.9214 18.8281 13.1718C18.0785 12.4222 17.0626 12 16.0024 11.9975ZM22.4024 11.0468C22.2137 11.0461 22.0269 11.0083 21.8528 10.9354C21.6787 10.8625 21.5206 10.756 21.3877 10.6221C21.1191 10.3515 20.969 9.98537 20.9704 9.60417C20.9719 9.22296 21.1246 8.85793 21.3952 8.58938C21.6658 8.32083 22.0319 8.17075 22.4131 8.17217C22.7943 8.17358 23.1593 8.32637 23.4279 8.59693C23.6964 8.86748 23.8465 9.23363 23.8451 9.61484C23.8437 9.99604 23.6909 10.3611 23.4204 10.6296C23.1498 10.8982 22.7836 11.0482 22.4024 11.0468Z" fill="white"/>
</svg>
