<svg width="95" height="192" viewBox="0 0 95 192" fill="none" xmlns="http://www.w3.org/2000/svg">
<path d="M36.3388 142.827C34.4565 143.675 32.6859 144.812 30.9899 146.005C27.2066 148.651 25.6224 152.984 26.9363 157.373C27.4116 158.957 27.2252 160.029 25.8554 160.924C24.6253 161.725 23.9916 162.955 23.6562 164.334C23.1157 166.571 23.8053 168.239 25.7528 169.488C26.1256 169.721 26.5263 169.916 26.8897 170.112C26.8245 170.354 26.8338 170.559 26.7406 170.624C24.2619 172.32 23.4698 174.669 23.5723 177.613C23.6282 179.086 23.0039 180.595 22.6684 182.077C22.249 183.941 21.5502 185.786 21.457 187.659C21.3265 190.25 22.7522 191.563 25.3428 191.936C27.3091 192.225 28.9957 191.498 30.5519 190.473C31.4465 189.886 32.2386 189.131 33.0121 188.386C34.3446 187.091 35.7983 186.615 37.6341 187.277C44.474 189.746 49.0215 184.835 49.6831 179.617C49.8229 178.545 49.8322 177.455 50.0372 176.402C50.2423 175.358 50.4007 174.203 50.9784 173.364C52.6931 170.867 53.2708 168.351 51.3232 165.08C52.4694 165.574 53.0379 165.816 53.6063 166.058C56.989 167.503 60.2225 165.592 60.2971 161.93C60.3344 160.188 59.9896 158.398 59.5796 156.693C59.067 154.54 58.9738 152.472 59.6355 150.328C60.4276 147.784 59.9896 145.296 58.8807 142.92C58.1445 141.345 57.0728 140.078 55.4607 139.314C54.7711 138.988 54.1002 138.578 53.4852 138.13C52.3296 137.301 51.696 136.127 52.0221 134.729C52.8328 131.244 52.2085 128.02 50.3448 124.861C52.7117 125.252 54.9202 125.625 56.8771 125.951C57.4642 127.675 57.781 129.539 58.6943 131.048C60.5953 134.189 63.6891 134.254 65.7578 131.216C66.6244 129.939 67.0438 128.281 67.3886 126.734C67.6961 125.327 68.1434 124.478 69.7182 124.096C72.4206 123.444 73.8464 122.009 75.589 118.999C80.7236 118.775 83.4353 113.874 81.4784 109.41C83.4073 109.056 85.2617 108.702 87.1348 108.395C87.8896 108.264 88.6724 108.301 89.4365 108.171C93.3783 107.491 95.3259 103.493 93.1919 100.101C91.1884 96.9233 88.6817 94.2115 84.3951 93.9693C86.4545 90.2977 86.8273 86.3932 87.2653 82.526C87.6287 79.2924 86.4173 76.4595 84.3206 74.0367C81.6368 70.9522 77.0893 71.502 75.3467 75.2201C74.4801 77.0745 74.07 79.1339 73.3712 81.3704C73.1009 80.8113 72.9145 80.3826 72.7002 79.9726C72.1597 78.9569 71.759 77.8107 71.0322 76.9627C69.681 75.3785 68.9634 73.6825 68.7025 71.5952C68.4043 69.1257 66.3915 68.3989 64.2575 69.7501C62.5708 70.8124 61.6949 72.3779 61.5924 74.3535C61.4805 76.4409 62.1608 78.2953 63.4561 79.9167C63.9313 80.5131 64.4346 81.0816 65.2267 82.0041C62.897 82.4421 60.8655 82.8335 58.3215 83.3087C58.4054 82.8148 58.6011 82.3489 58.5358 81.9202C58.1911 79.5626 56.6349 78.0903 54.2679 78.3232C52.1619 78.5282 50.6895 77.9225 49.5713 76.1893C48.7326 74.894 47.3814 74.3162 45.9836 73.8037C44.6417 73.3098 43.3278 72.7134 41.9952 72.1543C42.0791 71.5765 42.0605 71.2504 42.1723 70.9988C46.7105 60.9999 44.2504 52.2962 37.3359 44.3661C35.202 41.9153 32.5462 40.2006 29.6015 39.0731C24.6253 37.1628 19.7703 37.9362 15.1389 40.415C14.5984 40.7039 14.0859 41.0393 13.5547 41.3375C13.4988 41.3748 13.4056 41.3375 13.2006 41.3375C10.8244 38.0014 11.1039 34.3765 12.6788 30.8913C13.7411 28.5337 15.3719 26.4183 16.8163 24.2378C17.4965 23.2127 18.3539 22.3088 19.09 21.321C21.7272 17.8079 23.0505 13.8941 22.7057 9.44909C22.4634 6.30871 22.1745 3.1497 23.9544 0.205008C23.8146 0.139778 23.6748 0.0652275 23.535 -3.0832e-06C23.358 0.149095 23.153 0.27022 23.0132 0.447274C22.8175 0.689559 22.6591 0.950477 22.5193 1.23004C21.2892 3.71812 20.0871 6.23418 19.7796 9.02977C19.323 13.1113 17.189 16.3822 14.8594 19.5505C12.9024 22.2156 10.7312 24.713 8.85814 27.4248C6.12778 31.3945 5.15865 35.8302 5.98801 40.6107C6.21165 41.8966 6.38871 43.2012 6.65895 44.4779C6.836 45.3352 6.56575 45.8943 5.9414 46.4907C0.462034 51.6812 -0.712107 58.2043 0.359532 65.3237C0.769559 68.0541 2.12075 70.449 3.93789 72.4711C7.09691 75.9936 10.7219 78.9383 15.111 80.8672C19.1366 82.6378 23.3021 82.8241 27.57 82.1625C28.0266 82.088 28.4646 81.9948 28.9491 81.9016C30.1792 84.9115 31.4559 87.8469 32.5555 90.8568C32.9935 92.0589 33.068 93.4101 33.2171 94.7054C33.3382 95.7211 33.0214 96.5225 32.2852 97.3892C31.372 98.4701 30.7663 99.8773 30.3376 101.247C30.0954 102.03 30.2072 103.176 30.6265 103.875C31.4 105.161 31.2043 106.186 30.4215 107.267C29.5176 108.506 28.9026 109.792 29.8997 111.227C29.6294 111.404 29.5083 111.544 29.3778 111.563C23.8798 112.197 20.7301 118.002 23.1064 123.09C23.4884 123.91 23.9543 124.823 23.945 125.681C23.9264 127.283 24.411 128.541 25.7995 129.613C25.2963 130.06 24.8583 130.442 24.4296 130.834C23.9171 131.3 23.358 131.728 22.92 132.26C21.662 133.788 21.1495 135.53 21.9509 137.422C22.7523 139.314 24.4948 139.817 26.3213 139.845C27.2904 139.864 28.3155 139.612 29.238 139.277C30.4681 138.829 31.5677 138.783 32.8071 139.295C35.1088 140.246 37.4291 140.395 39.9358 138.596C38.9294 140.581 38.1467 142.016 36.3388 142.827ZM88.8681 99.5604C90.5734 99.8214 91.4307 100.744 91.5239 102.468C91.6078 104.089 90.7225 105.291 89.0824 105.58C88.0201 105.767 86.9205 105.729 85.8675 105.934C83.0346 106.484 81.1709 104.891 79.3071 103.139C81.0031 102.701 82.6525 102.309 84.3019 102.328C86.0166 102.356 87.7219 102.775 89.5763 103.046C88.4301 101.471 86.6968 101.508 84.9263 100.921C86.1656 99.6536 87.4144 99.3368 88.8681 99.5604ZM66.0187 79.6092C64.6582 78.2673 63.7077 76.7391 63.4934 74.8381C63.2604 72.788 64.4439 71.3902 66.5219 71.1851C66.6151 71.3808 66.7922 71.5765 66.8015 71.7909C66.9227 74.3069 68.1061 76.2638 69.8301 78.0344C70.5942 78.8264 71.1347 79.9354 71.4981 80.9977C72.1784 82.9546 71.5167 84.6972 69.6064 86.1043C69.2616 83.2808 67.7799 81.3518 66.0187 79.6092ZM64.3228 88.2383C62.8411 88.4247 61.2849 88.2383 59.7939 87.996C58.6104 87.8096 58.3588 86.9709 59.0018 85.9459C59.6727 84.8742 60.7444 84.5854 61.9278 84.4269C63.3256 84.2406 64.7141 83.9331 66.4101 83.6255C67.9943 86.0111 67.314 87.8562 64.3228 88.2383ZM45.8159 76.124C46.5614 76.4595 47.3908 76.9348 47.8287 77.5777C49.3849 79.8329 51.3605 80.8393 54.1281 80.5318C55.703 80.3547 56.3739 81.1841 56.2901 82.7869C56.2621 83.3926 56.0571 83.9983 55.9639 84.604C55.5819 87.12 56.5044 88.6576 58.9552 89.2447C60.5207 89.6174 62.1515 89.7106 63.745 89.925C69.0007 90.6332 75.1976 85.9645 75.9711 80.7927C76.1854 79.3669 76.614 77.9225 77.2104 76.5993C78.3753 73.9901 80.854 73.7012 82.7364 75.8258C85.0474 78.4444 85.6158 82.703 84.0783 85.8061C83.3235 87.3157 82.4848 88.0333 80.8354 88.5551C82.3264 83.141 82.0561 79.721 79.9035 77.7175C79.3351 78.6587 79.8476 79.5253 80.0526 80.364C80.621 82.675 80.6397 84.9488 79.7824 87.1759C79.3444 88.3128 78.6362 88.9558 77.2943 89.2354C75.8499 89.5336 74.3869 90.2511 73.2034 91.1364C72.0293 92.0123 71.1906 93.3356 70.1469 94.5284C71.554 95.1993 72.6256 94.519 73.5296 93.5313C74.741 92.208 76.2133 91.5371 77.9652 91.3321C79.7544 91.1271 81.5343 90.8568 83.5191 90.5866C83.193 91.1643 82.9507 91.8912 82.4755 92.413C78.6548 96.5691 73.6693 98.1067 68.0409 95.6186C67.5563 95.4043 67.0531 95.2273 66.5592 95.0316C66.4567 95.2086 66.3635 95.3763 66.261 95.5534C67.0531 96.215 67.752 97.091 68.6652 97.501C72.1038 99.0572 75.6542 99.4952 79.1021 97.5662C80.8633 96.5878 82.7084 96.2989 84.6374 96.271C86.1191 96.2523 87.4144 96.7089 88.5419 98.2092C86.2868 98.1254 84.5722 98.8615 83.3607 100.315C82.7271 101.079 82.0841 101.331 81.2454 101.424C78.0398 101.788 74.9553 101.35 72.0106 99.9798C71.3117 99.6536 70.6501 99.0945 69.3734 99.5511C70.268 100.185 70.8179 100.744 71.4888 101.005C72.9145 101.555 74.3962 101.955 75.8592 102.412C76.437 102.589 77.1452 102.608 77.5739 102.971C78.9623 104.117 80.239 105.394 81.6647 106.708C79.5401 107.388 77.3875 107.202 75.7381 105.972C72.9239 103.866 70.2587 101.499 67.7893 99.0013C66.4101 97.6035 65.5714 95.6932 64.3973 94.0717C63.9127 93.3915 63.4002 92.5062 61.9931 92.8883C63.6238 95.3391 65.413 97.5383 66.2424 100.269C62.7665 100.949 61.8906 101.545 61.5272 103.698C62.2726 103.307 62.8318 102.934 63.4468 102.719C64.4439 102.365 65.4689 101.955 66.5033 101.871C68.0036 101.75 69.0752 102.887 69.0846 104.425C69.0939 105.413 68.9914 106.41 68.9355 107.5C67.7986 107.947 66.7363 108.367 65.6739 108.795C63.745 109.559 61.7415 110.193 59.915 111.144C58.9552 111.637 58.2097 112.634 57.5294 113.52C57.2033 113.948 57.1567 114.694 58.0979 115.048C60.3623 111.209 64.7514 111.255 68.2832 109.494C67.5936 111.032 66.7176 112.355 65.8044 113.66C64.7048 115.225 63.3629 116.669 62.4963 118.356C60.7537 121.757 60.5301 125.345 62.049 129.007C62.7293 127.162 62.5895 125.187 62.9622 123.295C63.3722 121.217 64.0991 119.288 65.3664 117.601C66.5406 116.026 67.8265 114.545 69.1405 112.923C70.6781 114.852 69.6437 117.024 70.6967 118.775C71.0694 118.17 71.3956 117.536 71.3304 116.94C71.1626 115.421 70.8272 113.93 70.5569 112.429C70.4544 111.852 70.2028 111.227 70.3146 110.687C70.6221 109.131 71.0788 107.602 71.4142 106.326C73.5296 107.276 75.6915 108.217 77.8068 109.243C78.3194 109.494 78.7667 109.979 79.1114 110.445C80.0899 111.768 80.1085 113.156 79.1953 114.526C78.2914 115.896 77.2011 116.921 75.3653 116.269C74.2937 115.887 73.4364 116.176 73.278 117.34C72.8866 120.313 70.8178 121.45 68.2925 122.046C66.7363 122.41 65.8883 123.332 65.5342 124.795C65.3198 125.69 65.2453 126.631 64.9564 127.498C64.6489 128.43 64.2668 129.38 63.717 130.182C63.074 131.104 62.049 131.672 60.9028 131.318C59.7939 130.983 59.5795 129.893 59.4677 128.877C59.3932 128.187 59.3838 127.488 59.4398 126.799C59.5889 125.038 59.8218 123.276 59.9709 121.515C60.0362 120.676 60.0921 119.81 59.9709 118.981C59.7286 117.387 58.8154 116.772 57.2126 116.968C56.8305 117.014 56.4485 117.182 56.0757 117.163C54.445 117.079 53.4013 116.045 52.6185 114.768C51.8358 113.492 52.7024 112.607 53.569 111.787C54.9016 110.519 55.4048 109.056 54.9761 107.192C54.4357 104.872 54.6966 104.62 57.0076 103.595C57.6692 103.307 58.5545 102.813 58.7129 102.235C59.0111 101.145 59.7939 100.865 60.586 100.408C62.3658 99.3741 63.2045 97.7433 62.3845 96.1871C61.6203 94.7334 60.4275 93.4754 59.3 92.2453C58.9738 91.8912 58.2376 91.9098 57.6878 91.7514C57.5853 91.8725 57.4828 91.9937 57.3803 92.1055C58.0886 93.4008 58.7968 94.7054 59.6821 96.3175C57.3244 95.7212 55.1905 95.3763 53.2149 94.6215C49.795 93.3169 47.8753 89.4218 48.742 85.8807C49.4875 87.176 49.6179 88.8999 51.5469 89.4124C50.6616 86.4957 50.1491 83.6721 48.1269 81.5382C46.3843 79.7024 44.5299 77.9691 42.7314 76.1706C42.2469 75.6861 41.4455 75.4344 41.287 74.4094C42.9551 75.0431 44.4181 75.4997 45.8159 76.124ZM52.7769 103.549C52.5533 104.024 52.3389 104.49 52.0687 105.058C51.1741 104.676 50.5591 104.36 49.9068 104.155C49.1799 103.922 48.4065 103.847 47.689 103.595C46.1327 103.064 45.9557 102.673 46.3098 100.893C48.6488 101.312 51.2487 101.079 52.7769 103.549ZM52.544 100.679C51.7053 99.7375 50.7455 99.2902 49.534 99.2436C45.8904 99.0945 46.3937 98.0601 46.0861 95.7677C45.8811 94.1929 45.4898 92.8044 44.6884 91.4439C44.3156 90.8102 44.0081 89.9809 44.0826 89.2726C44.4368 85.7968 42.8712 83.2062 40.5602 80.8579C39.7029 79.9913 38.976 78.9755 38.3051 77.9505C37.6994 77.0279 38.0814 76.357 38.9667 76.0961C40.1222 77.028 41.1659 77.9412 42.2655 78.7612C44.9493 80.7647 46.0209 83.4392 46.0489 86.7659C46.1234 93.5406 50.177 97.4171 56.9796 97.4451C57.837 97.4451 58.7036 97.5383 59.5609 97.5942C59.0484 98.3117 58.48 98.4981 58.0047 98.8243C57.4642 99.197 56.8585 99.6163 56.551 100.166C55.3768 102.198 54.1002 102.44 52.544 100.679ZM7.05032 72.7041C4.57156 70.1321 2.99671 67.1222 2.48419 63.5625C1.8412 59.0336 3.16446 54.8682 4.935 50.8239C5.3357 49.9107 6.20234 49.2025 7.09693 48.1029C7.38581 49.2584 7.57216 49.9666 7.74922 50.6748C7.95423 50.6655 8.15924 50.6655 8.36426 50.6562C8.32698 49.3143 8.38289 47.9538 8.24311 46.6212C8.00082 44.4034 7.64672 42.1948 7.32057 39.9863C6.93851 37.4144 7.25535 34.9449 8.09403 32.4848C9.16568 29.3537 11.0108 26.7165 13.1727 24.2937C15.3905 21.8056 17.3661 19.1871 18.8571 16.1958C19.1832 15.5435 19.6119 14.9471 19.9939 14.3228C19.8821 16.7922 18.5775 18.6745 17.2449 20.5383C15.5023 22.9798 13.7131 25.3933 12.0265 27.8721C10.2839 30.4347 9.51045 33.3048 9.65023 36.3986C9.82728 40.3684 12.2501 43.6951 15.7912 44.8134C16.2385 44.9532 16.7511 44.9065 17.2356 44.9438C17.2729 44.8413 17.3008 44.7482 17.3381 44.6456C16.6485 44.1424 15.959 43.6299 15.2694 43.1267C15.4464 42.8751 15.5023 42.7073 15.6142 42.6421C23.7493 38.0853 30.4308 40.2938 36.4693 45.8477C39.3022 48.457 41.0541 51.9701 42.135 55.7721C44.5952 64.4664 41.4548 74.8474 31.344 79.3856C29.4617 80.2336 27.5327 80.9697 25.3522 80.8765C18.1488 80.5597 12.0451 77.8853 7.05032 72.7041ZM34.3633 113.054C31.0645 112.504 30.4774 111.283 32.1548 108.45C32.2759 108.255 32.3691 108.04 32.4902 107.845C33.4407 106.288 33.7669 104.76 32.6207 103.111C31.9032 102.076 32.3691 101.117 33.1146 100.11C33.3382 100.418 33.506 100.567 33.5712 100.763C34.326 103.008 35.0715 105.263 35.9381 107.891C36.7488 105.934 36.4973 104.238 36.2084 102.505C35.8636 100.464 35.4163 98.3956 35.4442 96.3548C35.5001 93.1119 34.8851 90.0927 33.4501 87.2132C33.1146 86.533 32.8723 85.8061 32.5834 85.0979C34.2328 86.6634 35.2765 88.4712 36.05 90.512C38.2958 96.448 38.594 102.691 39.1251 108.888C39.3954 112.075 37.5316 113.576 34.3633 113.054ZM27.9521 137.301C27.4116 137.534 26.7499 137.608 26.1535 137.581C23.8891 137.469 23.0411 135.745 24.411 133.909C25.0912 132.996 26.079 132.334 26.8804 131.505C27.4302 130.936 27.8868 130.284 28.4273 129.622C28.008 129.278 27.8589 129.063 27.6632 129.017C26.1722 128.625 25.9019 127.721 26.0417 126.24C26.1536 125.084 25.9206 123.724 25.3801 122.708C24.2712 120.649 24.5042 118.692 25.2869 116.707C26.3027 114.125 28.2875 113.194 30.8595 114.293C33.5246 115.43 36.1338 115.803 39.004 114.666C39.1717 116.949 39.647 119.139 38.0162 120.928C37.1589 121.869 36.0872 122.643 35.0435 123.398C33.4314 124.544 31.7261 125.569 30.9899 128.159C33.9346 126.007 36.5066 124.124 39.1624 122.177C39.619 125.932 40.0197 129.436 40.467 132.94C40.6254 134.179 40.2154 135.12 39.386 136.062C37.8391 137.832 35.9475 138.196 33.9626 137.329C31.8845 136.416 29.9742 136.416 27.9521 137.301ZM42.2934 128.97C41.8089 124.851 41.4361 120.686 41.4734 116.539C41.52 111.209 41.1379 105.925 40.6813 100.632C40.3179 96.3455 39.0413 92.3385 37.6435 88.3408C37.2893 87.3437 36.7116 86.4025 36.1059 85.5172C34.9131 83.7746 34.121 81.9016 33.9253 79.6651C34.5496 79.2737 35.174 78.873 35.7238 78.5282C37.0284 79.9726 38.2026 81.2772 39.3954 82.5632C41.1286 84.4363 42.2841 86.4864 42.0325 89.2074C41.9393 90.1393 42.1723 91.3134 42.7035 92.0589C44.4927 94.547 44.0454 97.3799 43.9895 100.064C43.9149 103.605 44.9679 105.245 48.4624 105.785C49.2172 105.906 50.0093 105.962 50.7082 106.251C52.8422 107.146 53.159 108.572 51.6867 110.361C51.491 110.603 51.2766 110.817 51.0903 111.06C49.7484 112.821 49.6738 114.591 50.9878 116.371C52.5999 118.543 54.6407 119.903 57.8649 119.251C57.7997 120.341 57.7904 121.18 57.6878 122.018C57.5201 123.426 57.194 123.761 55.7869 123.733C52.6278 123.668 50.0466 122.307 47.7449 120.183C45.7414 118.328 45.2288 116.166 45.4432 113.529C45.6016 111.647 45.3313 109.699 45.0425 107.817C44.9213 107.015 44.269 106.289 43.859 105.534C43.6633 105.59 43.4676 105.646 43.2719 105.692C43.2626 106.41 43.2067 107.127 43.2439 107.845C43.3371 109.755 43.4397 111.675 43.5888 113.585C43.7099 115.113 43.8869 116.632 44.0733 118.16C44.2504 119.605 44.6883 121.059 44.6417 122.494C44.5392 125.802 44.1385 129.091 44.0081 132.399C43.9149 134.701 44.0174 137.003 44.0919 139.304C44.1106 139.742 44.3808 140.18 44.5392 140.618C44.6697 140.59 44.8002 140.572 44.9399 140.544C45.5736 135.456 46.2073 130.377 46.8875 124.935C49.1333 127.488 50.0466 130.079 49.534 133.182C48.8538 137.301 49.8416 139.454 53.5411 141.28C56.4671 142.734 57.3897 145.203 57.2592 148.12C57.1846 149.974 56.5603 151.801 56.1969 153.599C54.4636 152.761 52.8981 151.931 51.2673 151.251C49.2545 150.412 47.7449 149.126 46.8503 147.104C46.5428 146.396 46.3657 145.501 45.0331 145.035C45.1543 146.163 45.089 147.086 45.3779 147.878C46.1514 149.984 47.5957 151.549 49.7111 152.425C50.7734 152.863 51.8637 153.254 52.926 153.73C56.4764 155.314 57.9301 157.69 57.781 161.557C57.6879 163.831 56.0478 164.931 53.9884 163.906C52.8422 163.337 51.8451 162.461 50.8293 161.651C50.2423 161.175 49.7856 160.486 48.6208 161.157C48.9283 161.846 49.2358 162.499 49.5154 163.17C50.7827 166.179 51.6121 169.133 49.2172 172.06C48.0617 173.467 47.7542 175.247 47.6423 177.045C47.5492 178.536 47.4746 180.046 46.58 181.816C46.5334 181.052 46.4868 180.745 46.5055 180.446C46.7198 176.812 45.937 173.411 44.1758 170.224C43.0762 168.239 42.4892 166.105 42.4239 163.822C42.3866 162.62 42.2003 161.427 41.2311 160.029C40.9236 161.036 40.6254 161.651 40.5602 162.284C40.3179 164.856 40.5695 167.363 41.7623 169.702C42.4239 171.007 43.1135 172.292 43.7565 173.616C45.0518 176.3 45.6575 179.142 45.4432 182.133C45.3034 184.118 44.502 185.031 42.5544 185.469C40.9982 185.823 39.5072 185.572 38.0255 185.04C35.7984 184.248 33.7949 184.649 32.0243 186.261C31.1111 187.09 30.1979 187.929 29.2008 188.628C28.1198 189.392 26.9084 189.895 25.5199 189.662C24.2246 189.439 23.6562 188.982 23.7493 187.687C23.8425 186.41 24.1314 185.087 24.616 183.904C25.5851 181.518 26.3306 179.132 26.0976 176.514C25.9672 174.995 26.6381 173.895 27.8402 172.973C28.7441 172.274 29.4896 171.37 30.2631 170.522C30.8129 169.916 31.2043 169.078 30.5054 168.481C30.1233 168.155 29.2101 168.211 28.651 168.416C27.5327 168.826 26.5356 168.928 25.6969 167.969C24.821 166.962 24.8862 165.741 25.5572 164.744C26.2281 163.747 27.132 162.871 28.0546 162.098C29.4989 160.896 30.2072 159.526 29.6574 157.644C29.5269 157.196 29.4151 156.749 29.3312 156.292C28.7907 153.506 29.5176 151.027 31.5677 149.126C33.7669 147.086 36.5625 145.949 39.3208 144.458C39.6283 146.974 39.4606 148.837 37.2614 150.31C36.0966 151.093 35.4815 152.742 34.6988 154.056C33.8787 155.435 33.1612 156.879 32.397 158.296C32.2107 158.641 32.0243 158.985 31.7354 159.535C33.3848 159.451 34.0558 158.547 34.6242 157.541C35.2672 156.404 35.8449 155.221 36.5345 154.112C37.0284 153.301 37.4384 152.341 38.5939 152.136C39.2183 153.413 39.1251 154.615 38.6033 155.78C37.8857 157.392 37.2055 159.041 36.3481 160.579C34.6987 163.533 34.1303 166.58 34.8665 169.916C35.4629 172.609 34.736 175.107 33.1519 177.353C32.7512 177.921 32.3691 178.508 31.9218 179.03C30.5799 180.614 29.1914 182.161 27.8402 183.745C27.0202 184.705 26.2747 185.721 26.955 187.547C29.4244 184.919 31.7075 182.562 33.8973 180.129C36.87 176.821 38.0069 172.973 37.0284 168.574C36.5718 166.534 36.9352 164.614 37.8578 162.75C38.7896 160.896 39.7588 159.041 40.495 157.112C40.9423 155.929 41.343 154.522 41.1379 153.32C40.5695 150.049 40.905 146.89 41.5945 143.703C42.6476 138.811 42.8805 133.928 42.2934 128.97Z" fill="#E6E6E6"/>
<path d="M6.08121 57.7851C7.9263 60.1241 12.3247 59.8818 14.5332 57.459C11.7469 58.2511 8.93272 58.4281 6.08121 57.7851Z" fill="#E6E6E6"/>
<path d="M19.8447 76.4128C19.8261 76.2544 19.7981 76.1053 19.7795 75.9469C18.5122 75.8351 17.2541 75.7232 15.7538 75.5928C16.1825 77.3913 17.4126 77.1304 18.4376 77.2235C18.5681 77.1863 18.6985 77.1676 18.829 77.1583C19.1645 76.9067 19.4999 76.6551 19.8447 76.4128Z" fill="#E6E6E6"/>
<path d="M22.4629 77.7365C21.2515 77.5408 20.0307 77.3451 18.8193 77.1494C18.6888 77.1587 18.5584 77.1867 18.4279 77.2147C18.5211 77.5501 18.5118 78.072 18.7168 78.1838C19.9841 78.8361 21.2328 78.5566 22.4536 78.249C22.4629 78.0813 22.4629 77.9135 22.4629 77.7365Z" fill="#E6E6E6"/>
<path d="M8.42015 63.1245C9.46383 64.1775 10.5355 64.1029 12.1104 62.6958C10.7498 62.8542 9.51975 62.994 8.42015 63.1245Z" fill="#E6E6E6"/>
<path d="M12.334 68.4176C11.048 68.0821 11.048 68.0821 9.23086 68.6878C10.8243 69.9365 11.0853 69.8992 12.334 68.4176Z" fill="#E6E6E6"/>
<path d="M12.2783 65.3979C10.8992 65.6868 9.85547 65.9105 8.57882 66.1807C10.2375 67.4853 10.7407 67.3828 12.2783 65.3979Z" fill="#E6E6E6"/>
</svg>
