<svg width="20" height="20" viewBox="0 0 20 20" fill="none" xmlns="http://www.w3.org/2000/svg">
<path d="M19.9988 19.9991V12.6745C19.9988 9.07472 19.2238 6.32489 15.0241 6.32489C12.9992 6.32489 11.6493 7.42482 11.0993 8.47476H11.0493V6.64987H7.07456V19.9991H11.2243V13.3745C11.2243 11.6246 11.5493 9.94967 13.6992 9.94967C15.824 9.94967 15.849 11.9245 15.849 13.4745V19.9741H19.9988V19.9991Z" fill="white"/>
<path d="M0.324484 6.65039H4.47423V19.9996H0.324484V6.65039Z" fill="white"/>
<path d="M2.39985 0C1.07493 0 0 1.07493 0 2.39985C0 3.72477 1.07493 4.8247 2.39985 4.8247C3.72477 4.8247 4.79971 3.72477 4.79971 2.39985C4.79971 1.07493 3.72477 0 2.39985 0Z" fill="white"/>
</svg>
