<svg width="27" height="27" viewBox="0 0 27 27" fill="none" xmlns="http://www.w3.org/2000/svg">
<path d="M13.5008 3.375C10.7626 3.375 8.54297 5.57662 8.54297 8.29237C8.54297 11.0092 10.7626 13.2109 13.5008 13.2109C16.2391 13.2109 18.4587 11.0092 18.4587 8.29237C18.4587 5.57662 16.2391 3.375 13.5008 3.375Z" fill="#B3B3B3"/>
<path d="M16.4261 15.399C14.4874 15.0921 12.5126 15.0921 10.5739 15.399L10.3657 15.4316C7.63425 15.8625 5.625 18.2003 5.625 20.9441C5.62647 21.2977 5.69757 21.6474 5.83422 21.9735C5.97088 22.2996 6.17042 22.5955 6.42145 22.8445C6.67249 23.0934 6.97009 23.2905 7.29728 23.4244C7.62447 23.5583 7.97484 23.6265 8.32837 23.625H18.6716C19.0252 23.6265 19.3755 23.5583 19.7027 23.4244C20.0299 23.2905 20.3275 23.0934 20.5785 22.8445C20.8296 22.5955 21.0291 22.2996 21.1658 21.9735C21.3024 21.6474 21.3735 21.2977 21.375 20.9441C21.375 18.2003 19.3646 15.8636 16.6343 15.4316L16.4261 15.3979V15.399Z" fill="#B3B3B3"/>
</svg>
