<svg width="18" height="18" viewBox="0 0 18 18" fill="none" xmlns="http://www.w3.org/2000/svg">
<path d="M9.31008 13.4111L12.8566 15.6577C13.31 15.9446 13.8725 15.5177 13.7381 14.9884L12.7138 10.9581C12.6848 10.8458 12.6882 10.7276 12.7234 10.6172C12.7586 10.5067 12.8243 10.4085 12.9129 10.3337L16.0933 7.68711C16.5106 7.33949 16.2958 6.64593 15.7586 6.61105L11.6056 6.34105C11.4938 6.33312 11.3866 6.29359 11.2964 6.22707C11.2061 6.16055 11.1367 6.06977 11.096 5.9653L9.5469 2.06493C9.50471 1.95408 9.42984 1.85867 9.33219 1.79136C9.23455 1.72404 9.11875 1.68799 9.00015 1.68799C8.88155 1.68799 8.76574 1.72404 8.6681 1.79136C8.57046 1.85867 8.49558 1.95408 8.4534 2.06493L6.90427 5.9653C6.86372 6.06988 6.79429 6.16077 6.70406 6.2274C6.61383 6.29402 6.50652 6.33364 6.39465 6.34161L2.24171 6.61161C1.70508 6.64593 1.48908 7.33949 1.90702 7.68711L5.0874 10.3342C5.17588 10.409 5.2415 10.5072 5.27673 10.6175C5.31195 10.7278 5.31534 10.8459 5.28652 10.9581L4.33702 14.6959C4.17558 15.3309 4.85115 15.8434 5.39452 15.4986L8.69077 13.4111C8.78342 13.3522 8.89093 13.3209 9.00071 13.3209C9.11049 13.3209 9.218 13.3522 9.31065 13.4111H9.31008Z" fill="#CCCCCC"/>
</svg>
