<svg width="32" height="32" viewBox="0 0 32 32" fill="none" xmlns="http://www.w3.org/2000/svg">
<g clip-path="url(#clip0_0_446)">
<path d="M30.7167 7.54411C30.7167 7.42254 30.6897 7.30097 30.6356 7.18616C30.5276 6.95652 30.3182 6.80118 30.0886 6.75391L16.3309 0.0810469C16.108 -0.0270156 15.8446 -0.0270156 15.6217 0.0810469L1.72892 6.81469C1.45876 6.94301 1.28316 7.21317 1.26965 7.5171V7.52385C1.26965 7.5306 1.26965 7.53736 1.26965 7.55087V24.4491C1.26965 24.7598 1.44525 25.0435 1.72892 25.1786L15.6217 31.9122C15.6285 31.9122 15.6285 31.9122 15.6352 31.919C15.6555 31.9257 15.6757 31.9325 15.696 31.946C15.7027 31.946 15.7095 31.9527 15.723 31.9527C15.7433 31.9595 15.7635 31.9662 15.7838 31.973C15.7905 31.973 15.7973 31.9797 15.8041 31.9797C15.8243 31.9865 15.8513 31.9865 15.8716 31.9932C15.8783 31.9932 15.8851 31.9932 15.8919 31.9932C15.9189 31.9932 15.9526 32 15.9797 32C16.0067 32 16.0404 32 16.0675 31.9932C16.0742 31.9932 16.081 31.9932 16.0877 31.9932C16.108 31.9932 16.135 31.9865 16.1553 31.9797C16.162 31.9797 16.1688 31.973 16.1755 31.973C16.1958 31.9662 16.216 31.9595 16.2363 31.9527C16.2431 31.9527 16.2498 31.946 16.2633 31.946C16.2836 31.9392 16.3038 31.9325 16.3241 31.919C16.3309 31.919 16.3309 31.919 16.3376 31.9122L30.2709 25.1583C30.5478 25.0232 30.7302 24.7396 30.7302 24.4289V7.56437C30.7167 7.55762 30.7167 7.55087 30.7167 7.54411ZM15.9729 1.70874L28.0219 7.55087L23.5846 9.70536L11.5356 3.86323L15.9729 1.70874ZM15.9729 13.393L3.92394 7.55087L9.67826 4.7615L21.7272 10.6036L15.9729 13.393ZM2.89059 8.85437L15.1624 14.8046V29.886L2.89059 23.9358V8.85437ZM16.7834 29.886V14.8046L22.5445 12.0084V15.9527C22.5445 16.3985 22.9092 16.7632 23.3549 16.7632C23.8007 16.7632 24.1654 16.3985 24.1654 15.9527V11.2182L29.0957 8.82735V23.9088L16.7834 29.886Z" fill="#FF6316"/>
</g>
<defs>
<clipPath id="clip0_0_446">
<rect width="32" height="32" fill="white"/>
</clipPath>
</defs>
</svg>
