<svg width="60" height="12" viewBox="0 0 60 12" fill="none" xmlns="http://www.w3.org/2000/svg">
<path d="M6.20663 8.94078L8.57101 10.4385C8.87326 10.6298 9.24826 10.3452 9.15863 9.99228L8.47576 7.30541C8.45647 7.23057 8.45869 7.1518 8.48217 7.07816C8.50566 7.00453 8.54945 6.93902 8.60851 6.88916L10.7288 5.12478C11.007 4.89303 10.8638 4.43066 10.5056 4.40741L7.73701 4.22741C7.66246 4.22212 7.59096 4.19577 7.53081 4.15142C7.47066 4.10707 7.42435 4.04656 7.39726 3.97691L6.36451 1.37666C6.33638 1.30276 6.28647 1.23916 6.22137 1.19428C6.15627 1.1494 6.07907 1.12537 6.00001 1.12537C5.92094 1.12537 5.84374 1.1494 5.77864 1.19428C5.71354 1.23916 5.66363 1.30276 5.63551 1.37666L4.60276 3.97691C4.57572 4.04663 4.52943 4.10722 4.46928 4.15164C4.40913 4.19606 4.33759 4.22246 4.26301 4.22778L1.49438 4.40778C1.13663 4.43066 0.992631 4.89303 1.27126 5.12478L3.39151 6.88953C3.4505 6.93936 3.49424 7.00481 3.51772 7.07837C3.54121 7.15193 3.54347 7.23062 3.52426 7.30541L2.89126 9.79728C2.78363 10.2207 3.23401 10.5623 3.59626 10.3324L5.79376 8.94078C5.85552 8.90152 5.92719 8.88066 6.00038 8.88066C6.07357 8.88066 6.14524 8.90152 6.20701 8.94078H6.20663Z" fill="white"/>
<path d="M18.2066 8.94078L20.571 10.4385C20.8733 10.6298 21.2483 10.3452 21.1586 9.99228L20.4758 7.30541C20.4565 7.23057 20.4587 7.1518 20.4822 7.07816C20.5057 7.00453 20.5494 6.93902 20.6085 6.88916L22.7288 5.12478C23.007 4.89303 22.8638 4.43066 22.5056 4.40741L19.737 4.22741C19.6625 4.22212 19.591 4.19577 19.5308 4.15142C19.4707 4.10707 19.4243 4.04656 19.3973 3.97691L18.3645 1.37666C18.3364 1.30276 18.2865 1.23916 18.2214 1.19428C18.1563 1.1494 18.0791 1.12537 18 1.12537C17.9209 1.12537 17.8437 1.1494 17.7786 1.19428C17.7135 1.23916 17.6636 1.30276 17.6355 1.37666L16.6028 3.97691C16.5757 4.04663 16.5294 4.10722 16.4693 4.15164C16.4091 4.19606 16.3376 4.22246 16.263 4.22778L13.4944 4.40778C13.1366 4.43066 12.9926 4.89303 13.2713 5.12478L15.3915 6.88953C15.4505 6.93936 15.4942 7.00481 15.5177 7.07837C15.5412 7.15193 15.5435 7.23062 15.5243 7.30541L14.8913 9.79728C14.7836 10.2207 15.234 10.5623 15.5963 10.3324L17.7938 8.94078C17.8555 8.90152 17.9272 8.88066 18.0004 8.88066C18.0736 8.88066 18.1452 8.90152 18.207 8.94078H18.2066Z" fill="white"/>
<path d="M30.2066 8.94078L32.571 10.4385C32.8733 10.6298 33.2483 10.3452 33.1586 9.99228L32.4758 7.30541C32.4565 7.23057 32.4587 7.1518 32.4822 7.07816C32.5057 7.00453 32.5494 6.93902 32.6085 6.88916L34.7288 5.12478C35.007 4.89303 34.8638 4.43066 34.5056 4.40741L31.737 4.22741C31.6625 4.22212 31.591 4.19577 31.5308 4.15142C31.4707 4.10707 31.4243 4.04656 31.3973 3.97691L30.3645 1.37666C30.3364 1.30276 30.2865 1.23916 30.2214 1.19428C30.1563 1.1494 30.0791 1.12537 30 1.12537C29.9209 1.12537 29.8437 1.1494 29.7786 1.19428C29.7135 1.23916 29.6636 1.30276 29.6355 1.37666L28.6028 3.97691C28.5757 4.04663 28.5294 4.10722 28.4693 4.15164C28.4091 4.19606 28.3376 4.22246 28.263 4.22778L25.4944 4.40778C25.1366 4.43066 24.9926 4.89303 25.2713 5.12478L27.3915 6.88953C27.4505 6.93936 27.4942 7.00481 27.5177 7.07837C27.5412 7.15193 27.5435 7.23062 27.5243 7.30541L26.8913 9.79728C26.7836 10.2207 27.234 10.5623 27.5963 10.3324L29.7938 8.94078C29.8555 8.90152 29.9272 8.88066 30.0004 8.88066C30.0736 8.88066 30.1452 8.90152 30.207 8.94078H30.2066Z" fill="white"/>
<path d="M42.2066 8.94078L44.571 10.4385C44.8733 10.6298 45.2483 10.3452 45.1586 9.99228L44.4758 7.30541C44.4565 7.23057 44.4587 7.1518 44.4822 7.07816C44.5057 7.00453 44.5494 6.93902 44.6085 6.88916L46.7288 5.12478C47.007 4.89303 46.8638 4.43066 46.5056 4.40741L43.737 4.22741C43.6625 4.22212 43.591 4.19577 43.5308 4.15142C43.4707 4.10707 43.4243 4.04656 43.3973 3.97691L42.3645 1.37666C42.3364 1.30276 42.2865 1.23916 42.2214 1.19428C42.1563 1.1494 42.0791 1.12537 42 1.12537C41.9209 1.12537 41.8437 1.1494 41.7786 1.19428C41.7135 1.23916 41.6636 1.30276 41.6355 1.37666L40.6028 3.97691C40.5757 4.04663 40.5294 4.10722 40.4693 4.15164C40.4091 4.19606 40.3376 4.22246 40.263 4.22778L37.4944 4.40778C37.1366 4.43066 36.9926 4.89303 37.2713 5.12478L39.3915 6.88953C39.4505 6.93936 39.4942 7.00481 39.5177 7.07837C39.5412 7.15193 39.5435 7.23062 39.5243 7.30541L38.8913 9.79728C38.7836 10.2207 39.234 10.5623 39.5963 10.3324L41.7938 8.94078C41.8555 8.90152 41.9272 8.88066 42.0004 8.88066C42.0736 8.88066 42.1452 8.90152 42.207 8.94078H42.2066Z" fill="white"/>
<path d="M54.2066 8.94078L56.571 10.4385C56.8733 10.6298 57.2483 10.3452 57.1586 9.99228L56.4758 7.30541C56.4565 7.23057 56.4587 7.1518 56.4822 7.07816C56.5057 7.00453 56.5494 6.93902 56.6085 6.88916L58.7288 5.12478C59.007 4.89303 58.8638 4.43066 58.5056 4.40741L55.737 4.22741C55.6625 4.22212 55.591 4.19577 55.5308 4.15142C55.4707 4.10707 55.4243 4.04656 55.3973 3.97691L54.3645 1.37666C54.3364 1.30276 54.2865 1.23916 54.2214 1.19428C54.1563 1.1494 54.0791 1.12537 54 1.12537C53.9209 1.12537 53.8437 1.1494 53.7786 1.19428C53.7135 1.23916 53.6636 1.30276 53.6355 1.37666L52.6028 3.97691C52.5757 4.04663 52.5294 4.10722 52.4693 4.15164C52.4091 4.19606 52.3376 4.22246 52.263 4.22778L49.4944 4.40778C49.1366 4.43066 48.9926 4.89303 49.2713 5.12478L51.3915 6.88953C51.4505 6.93936 51.4942 7.00481 51.5177 7.07837C51.5412 7.15193 51.5435 7.23062 51.5243 7.30541L50.8913 9.79728C50.7836 10.2207 51.234 10.5623 51.5963 10.3324L53.7938 8.94078C53.8555 8.90152 53.9272 8.88066 54.0004 8.88066C54.0736 8.88066 54.1452 8.90152 54.207 8.94078H54.2066Z" fill="#CCCCCC"/>
</svg>
