<svg width="104" height="20" viewBox="0 0 104 20" fill="none" xmlns="http://www.w3.org/2000/svg">
<path d="M10.3444 14.9012L14.285 17.3974C14.7887 17.7162 15.4137 17.2418 15.2644 16.6537L14.1262 12.1756C14.0941 12.0508 14.0978 11.9195 14.1369 11.7968C14.1761 11.6741 14.249 11.5649 14.3475 11.4818L17.8812 8.54118C18.345 8.15493 18.1062 7.38431 17.5094 7.34556L12.895 7.04556C12.7707 7.03675 12.6516 6.99283 12.5513 6.91891C12.4511 6.845 12.3739 6.74414 12.3287 6.62806L10.6075 2.29431C10.5606 2.17115 10.4774 2.06514 10.3689 1.99034C10.2604 1.91554 10.1318 1.87549 9.99998 1.87549C9.8682 1.87549 9.73953 1.91554 9.63104 1.99034C9.52254 2.06514 9.43935 2.17115 9.39248 2.29431L7.67123 6.62806C7.62617 6.74425 7.54902 6.84525 7.44877 6.91928C7.34852 6.99331 7.22929 7.03732 7.10498 7.04618L2.4906 7.34618C1.89436 7.38431 1.65436 8.15493 2.11873 8.54118L5.65248 11.4824C5.7508 11.5655 5.82371 11.6746 5.86284 11.7972C5.90198 11.9198 5.90575 12.0509 5.87373 12.1756L4.81873 16.3287C4.63935 17.0343 5.38998 17.6037 5.99373 17.2206L9.65623 14.9012C9.75917 14.8357 9.87862 14.801 10.0006 14.801C10.1226 14.801 10.242 14.8357 10.345 14.9012H10.3444Z" fill="#FF6316"/>
<path d="M31.3444 14.9012L35.285 17.3974C35.7887 17.7162 36.4137 17.2418 36.2644 16.6537L35.1262 12.1756C35.0941 12.0508 35.0978 11.9195 35.1369 11.7968C35.1761 11.6741 35.249 11.5649 35.3475 11.4818L38.8812 8.54118C39.345 8.15493 39.1062 7.38431 38.5094 7.34556L33.895 7.04556C33.7707 7.03675 33.6516 6.99283 33.5513 6.91891C33.4511 6.845 33.3739 6.74414 33.3287 6.62806L31.6075 2.29431C31.5606 2.17115 31.4774 2.06514 31.3689 1.99034C31.2604 1.91554 31.1318 1.87549 31 1.87549C30.8682 1.87549 30.7395 1.91554 30.631 1.99034C30.5225 2.06514 30.4393 2.17115 30.3925 2.29431L28.6712 6.62806C28.6262 6.74425 28.549 6.84525 28.4488 6.91928C28.3485 6.99331 28.2293 7.03732 28.105 7.04618L23.4906 7.34618C22.8944 7.38431 22.6544 8.15493 23.1187 8.54118L26.6525 11.4824C26.7508 11.5655 26.8237 11.6746 26.8628 11.7972C26.902 11.9198 26.9058 12.0509 26.8737 12.1756L25.8187 16.3287C25.6394 17.0343 26.39 17.6037 26.9937 17.2206L30.6562 14.9012C30.7592 14.8357 30.8786 14.801 31.0006 14.801C31.1226 14.801 31.242 14.8357 31.345 14.9012H31.3444Z" fill="#FF6316"/>
<path d="M52.3444 14.9012L56.285 17.3974C56.7887 17.7162 57.4137 17.2418 57.2644 16.6537L56.1262 12.1756C56.0941 12.0508 56.0978 11.9195 56.1369 11.7968C56.1761 11.6741 56.249 11.5649 56.3475 11.4818L59.8812 8.54118C60.345 8.15493 60.1062 7.38431 59.5094 7.34556L54.895 7.04556C54.7707 7.03675 54.6516 6.99283 54.5513 6.91891C54.4511 6.845 54.3739 6.74414 54.3287 6.62806L52.6075 2.29431C52.5606 2.17115 52.4774 2.06514 52.3689 1.99034C52.2604 1.91554 52.1318 1.87549 52 1.87549C51.8682 1.87549 51.7395 1.91554 51.631 1.99034C51.5225 2.06514 51.4393 2.17115 51.3925 2.29431L49.6712 6.62806C49.6262 6.74425 49.549 6.84525 49.4488 6.91928C49.3485 6.99331 49.2293 7.03732 49.105 7.04618L44.4906 7.34618C43.8944 7.38431 43.6544 8.15493 44.1187 8.54118L47.6525 11.4824C47.7508 11.5655 47.8237 11.6746 47.8628 11.7972C47.902 11.9198 47.9058 12.0509 47.8737 12.1756L46.8187 16.3287C46.6394 17.0343 47.39 17.6037 47.9937 17.2206L51.6562 14.9012C51.7592 14.8357 51.8786 14.801 52.0006 14.801C52.1226 14.801 52.242 14.8357 52.345 14.9012H52.3444Z" fill="#FF6316"/>
<path d="M73.3444 14.9012L77.285 17.3974C77.7887 17.7162 78.4137 17.2418 78.2644 16.6537L77.1262 12.1756C77.0941 12.0508 77.0978 11.9195 77.1369 11.7968C77.1761 11.6741 77.249 11.5649 77.3475 11.4818L80.8812 8.54118C81.345 8.15493 81.1062 7.38431 80.5094 7.34556L75.895 7.04556C75.7707 7.03675 75.6516 6.99283 75.5513 6.91891C75.4511 6.845 75.3739 6.74414 75.3287 6.62806L73.6075 2.29431C73.5606 2.17115 73.4774 2.06514 73.3689 1.99034C73.2604 1.91554 73.1318 1.87549 73 1.87549C72.8682 1.87549 72.7395 1.91554 72.631 1.99034C72.5225 2.06514 72.4393 2.17115 72.3925 2.29431L70.6712 6.62806C70.6262 6.74425 70.549 6.84525 70.4488 6.91928C70.3485 6.99331 70.2293 7.03732 70.105 7.04618L65.4906 7.34618C64.8944 7.38431 64.6544 8.15493 65.1187 8.54118L68.6525 11.4824C68.7508 11.5655 68.8237 11.6746 68.8628 11.7972C68.902 11.9198 68.9058 12.0509 68.8737 12.1756L67.8187 16.3287C67.6394 17.0343 68.39 17.6037 68.9937 17.2206L72.6562 14.9012C72.7592 14.8357 72.8786 14.801 73.0006 14.801C73.1226 14.801 73.242 14.8357 73.345 14.9012H73.3444Z" fill="#FF6316"/>
<path d="M94.3444 14.9012L98.285 17.3974C98.7887 17.7162 99.4137 17.2418 99.2644 16.6537L98.1262 12.1756C98.0941 12.0508 98.0978 11.9195 98.1369 11.7968C98.1761 11.6741 98.249 11.5649 98.3475 11.4818L101.881 8.54118C102.345 8.15493 102.106 7.38431 101.509 7.34556L96.895 7.04556C96.7707 7.03675 96.6516 6.99283 96.5513 6.91891C96.4511 6.845 96.3739 6.74414 96.3287 6.62806L94.6075 2.29431C94.5606 2.17115 94.4774 2.06514 94.3689 1.99034C94.2604 1.91554 94.1318 1.87549 94 1.87549C93.8682 1.87549 93.7395 1.91554 93.631 1.99034C93.5225 2.06514 93.4393 2.17115 93.3925 2.29431L91.6712 6.62806C91.6262 6.74425 91.549 6.84525 91.4488 6.91928C91.3485 6.99331 91.2293 7.03732 91.105 7.04618L86.4906 7.34618C85.8944 7.38431 85.6544 8.15493 86.1187 8.54118L89.6525 11.4824C89.7508 11.5655 89.8237 11.6746 89.8628 11.7972C89.902 11.9198 89.9058 12.0509 89.8737 12.1756L88.8187 16.3287C88.6394 17.0343 89.39 17.6037 89.9937 17.2206L93.6562 14.9012C93.7592 14.8357 93.8786 14.801 94.0006 14.801C94.1226 14.801 94.242 14.8357 94.345 14.9012H94.3444Z" fill="#FF6316"/>
</svg>
