<svg width="32" height="32" viewBox="0 0 32 32" fill="none" xmlns="http://www.w3.org/2000/svg">
<g clip-path="url(#clip0_0_424)">
<path d="M26.9479 12.1681V10.9378C26.9479 7.99328 25.9059 5.25714 24.0168 3.22689C22.0806 1.14286 19.4185 0 16.5143 0H15.4991C12.5949 0 9.93275 1.14286 7.99661 3.22689C6.10754 5.25714 5.06552 7.99328 5.06552 10.9378V12.1681C2.77308 12.3227 0.951233 14.2319 0.951233 16.5647V18.4874C0.951233 20.9143 2.9277 22.8908 5.35459 22.8908H7.83527C8.27896 22.8908 8.64199 22.5277 8.64199 22.084V12.9613C8.64199 12.5176 8.27896 12.1546 7.83527 12.1546H6.67896V10.9378C6.67896 5.62017 10.4706 1.61345 15.4924 1.61345H16.5075C21.5361 1.61345 25.321 5.62017 25.321 10.9378V12.1546H24.1647C23.721 12.1546 23.358 12.5176 23.358 12.9613V22.0773C23.358 22.521 23.721 22.884 24.1647 22.884H25.2941C24.9647 27.0924 22.0672 28.0672 20.7227 28.2891C20.3529 27.1529 19.284 26.3328 18.0269 26.3328H16.0101C14.4504 26.3328 13.1798 27.6034 13.1798 29.163C13.1798 30.7227 14.4504 32 16.0101 32H18.0336C19.3378 32 20.4336 31.1126 20.763 29.916C21.4218 29.8218 22.4638 29.5866 23.4991 28.9815C24.958 28.1277 26.6857 26.3866 26.9143 22.8773C29.2201 22.7361 31.0487 20.8202 31.0487 18.4807V16.558C31.0554 14.2319 29.2403 12.316 26.9479 12.1681ZM7.04199 21.2706H5.36804C3.82854 21.2706 2.57812 20.0202 2.57812 18.4807V16.558C2.57812 15.0185 3.82854 13.7681 5.36804 13.7681H7.04199V21.2706ZM18.0336 30.3866H16.0101C15.3378 30.3866 14.7933 29.842 14.7933 29.1697C14.7933 28.4975 15.3378 27.9529 16.0101 27.9529H18.0336C18.7059 27.9529 19.2504 28.4975 19.2504 29.1697C19.2504 29.842 18.7059 30.3866 18.0336 30.3866ZM29.442 18.4807C29.442 20.0202 28.1916 21.2706 26.6521 21.2706H24.9781V13.7681H26.6521C28.1916 13.7681 29.442 15.0185 29.442 16.558V18.4807Z" fill="#FF6316"/>
</g>
<defs>
<clipPath id="clip0_0_424">
<rect width="32" height="32" fill="white"/>
</clipPath>
</defs>
</svg>
