<svg width="58" height="123" viewBox="0 0 58 123" fill="none" xmlns="http://www.w3.org/2000/svg">
<path d="M1.92639 41.055C1.1386 46.7896 -0.224067 52.6093 0.0314329 58.3155C0.478559 68.3083 0.8831 78.1877 0.861808 88.2374C0.819224 101.921 5.80148 113.503 14.9782 120.856C20.216 125.058 23.7291 123.071 24.964 115.008C25.837 109.302 26.2628 103.397 26.348 97.5774C26.4331 90.3382 25.9647 83.0706 25.7518 75.8314C25.5389 68.6774 24.2401 61.9209 21.387 55.7889C18.9597 50.5937 18.1507 45.5121 19.5559 39.1814C20.876 33.2481 20.6418 26.747 21.1315 19.962C23.9207 23.9932 26.3906 27.6271 29.1585 31.6299C28.1791 32.7938 27.1358 33.8442 26.2415 35.0933C23.3671 39.153 23.8781 44.1494 27.6468 46.7611C31.9903 49.742 36.4402 49.4865 40.8263 46.5908C43.6368 44.7172 46.4899 42.9287 49.5559 40.9415C50.7483 44.4901 52.0045 47.5845 52.7923 50.8776C53.1542 52.4106 53.1116 54.852 52.409 55.9875C51.1315 58.1167 49.5346 56.4702 48.2358 55.3062C47.5119 54.6533 47.0009 53.5177 46.2344 53.0635C44.7866 52.2118 43.2323 51.7293 41.4438 52.1267C42.9555 54.4546 44.4459 56.8109 45.9576 59.1388C48.3423 62.8293 51.025 63.7093 53.8994 61.7505C56.7312 59.82 58.392 55.1643 57.2635 51.0195C56.497 48.209 54.9427 45.8243 53.8994 43.1274C53.1329 41.1118 52.1748 38.9258 52.0896 36.7683C51.8128 28.5639 49.8753 25.6399 43.6581 24.9017C43.1471 24.845 42.6361 24.7597 42.0612 24.6746C38.9739 18.4006 34.5453 14.2275 29.7972 10.5937C25.4111 7.24381 24.1336 7.52769 19.6837 12.439C18.7255 9.37296 17.8952 6.39217 16.8306 3.52489C16.0215 1.36734 14.7227 -0.875372 12.7426 0.345351C11.5502 1.08346 10.6134 3.18423 10.1024 4.94434C9.6127 6.61929 9.78303 8.63487 9.80432 10.5085C9.91078 20.1608 8.27132 29.0181 3.50198 36.598C2.71418 37.8755 2.13931 39.4936 1.92639 41.055ZM41.8909 32.368C43.9775 29.7563 45.3189 30.6079 47.4267 34.6675C38.5481 42.4745 33.1187 45.8243 28.1791 40.3169C30.3721 38.6419 32.3522 35.9734 34.3749 35.8882C37.3558 35.7463 39.634 35.1785 41.8909 32.368ZM37.7816 29.3871C31.9051 27.9109 26.8803 21.6938 25.7305 14.9656C31.2238 15.8741 36.5254 22.0344 37.7816 29.3871ZM9.99595 35.7747C11.7419 31.857 12.4445 27.1445 13.6155 22.7726C13.8923 21.779 14.1691 20.7853 14.4459 19.7917C15.9576 26.1508 16.0428 32.6519 14.4459 38.4432C12.3806 45.9947 13.722 52.2403 16.5325 58.4575C19.343 64.6462 20.5992 71.3459 20.7908 78.5283C20.9612 84.6036 21.387 90.6788 21.4722 96.7541C21.5573 103.425 21.2593 110.068 19.492 117.137C17.7887 115.888 16.5964 115.349 15.7447 114.327C8.67586 105.952 5.48211 95.4198 6.84477 82.9287C7.46223 77.2509 7.56869 71.857 6.58928 66.236C4.69431 55.5618 5.69502 45.4269 9.99595 35.7747Z" fill="#F2F2F2"/>
</svg>
