<svg width="41" height="41" viewBox="0 0 41 41" fill="none" xmlns="http://www.w3.org/2000/svg">
<path d="M31.8312 17.8248C31.6681 17.3216 31.2412 16.9618 30.7177 16.8858L24.5116 15.9839L21.7362 10.3608C21.5025 9.8861 21.0286 9.59131 20.4994 9.59131C19.9703 9.59131 19.4963 9.8861 19.2627 10.3603L16.4871 15.9839L10.2809 16.8858C9.75768 16.9618 9.33103 17.3213 9.16738 17.8246C9.00428 18.3271 9.13789 18.8687 9.51645 19.2382L14.0075 23.6156L12.9473 29.7966C12.8577 30.3177 13.0678 30.8347 13.4957 31.1457C13.7375 31.3215 14.0205 31.4108 14.3052 31.4108C14.5244 31.4108 14.7448 31.3578 14.9483 31.2508L20.4994 28.3325L26.0501 31.2509C26.2471 31.3544 26.469 31.4092 26.6916 31.4092C26.9851 31.4092 27.2654 31.3181 27.5026 31.1457C27.9299 30.835 28.1402 30.3183 28.0511 29.7969L27.6317 27.3515C27.5716 27.0017 27.2392 26.7668 26.8898 26.8268C26.54 26.8868 26.3051 27.219 26.3651 27.5688L26.7845 30.0137C26.7904 30.049 26.7756 30.0854 26.7469 30.1062C26.7043 30.1373 26.6734 30.1268 26.6478 30.1133L20.798 27.0379C20.6109 26.9396 20.3874 26.9395 20.2 27.0379L14.3497 30.1135C14.3184 30.1299 14.2796 30.1271 14.2509 30.1062C14.2217 30.085 14.2073 30.0499 14.2134 30.0141L15.3308 23.5C15.3666 23.2914 15.2975 23.0788 15.1461 22.9312L10.4134 18.3183C10.3878 18.2933 10.3783 18.2553 10.3892 18.2218C10.4002 18.1878 10.4301 18.1626 10.4653 18.1575L17.0058 17.207C17.2152 17.1766 17.3961 17.0452 17.4897 16.8555L20.415 10.9286C20.4468 10.8641 20.5513 10.8635 20.5834 10.9289L23.5086 16.8555C23.6021 17.0451 23.7831 17.1766 23.9924 17.207L30.533 18.1575C30.5681 18.1626 30.5979 18.1876 30.609 18.222C30.6199 18.2556 30.6105 18.2934 30.5851 18.3181L25.8523 22.9312C25.7009 23.0788 25.6318 23.2916 25.6676 23.5L26.0207 25.5581C26.0805 25.9079 26.4129 26.1428 26.7624 26.0828C27.1122 26.0228 27.3472 25.6906 27.2871 25.3408L26.9912 23.6156L31.4822 19.238C31.861 18.8686 31.9946 18.3268 31.8312 17.8248Z" fill="#FF6316" stroke="#FF6316" stroke-width="0.3"/>
<path d="M3.84691 19.8572H0.795023C0.440143 19.8572 0.152503 20.1448 0.152503 20.4997C0.152503 20.8546 0.440143 21.1422 0.795023 21.1422H3.84691C4.20187 21.1422 4.48943 20.8545 4.48943 20.4997C4.48943 20.1448 4.20179 19.8572 3.84691 19.8572Z" fill="#FF6316" stroke="#FF6316" stroke-width="0.3"/>
<path d="M40.2037 19.8572H37.1519C36.7969 19.8572 36.5094 20.1449 36.5094 20.4997C36.5094 20.8546 36.797 21.1422 37.1519 21.1422H40.2037C40.5587 21.1422 40.8462 20.8545 40.8462 20.4997C40.8462 20.1448 40.5587 19.8572 40.2037 19.8572Z" fill="#FF6316" stroke="#FF6316" stroke-width="0.3"/>
<path d="M8.27001 31.8204L6.11204 33.9783C5.86104 34.2292 5.86104 34.636 6.11196 34.887C6.23746 35.0125 6.4019 35.0752 6.56635 35.0752C6.73071 35.0752 6.89524 35.0125 7.02058 34.887L9.17855 32.7291C9.42955 32.4782 9.42955 32.0713 9.17863 31.8204C8.92771 31.5695 8.52085 31.5695 8.27001 31.8204Z" fill="#FF6316" stroke="#FF6316" stroke-width="0.3"/>
<path d="M33.978 6.11156L31.82 8.26946C31.569 8.52038 31.569 8.92724 31.8199 9.17816C31.9454 9.30366 32.1099 9.36637 32.2743 9.36637C32.4387 9.36637 32.6032 9.30366 32.7285 9.17808L34.8866 7.02018C35.1376 6.76934 35.1376 6.36248 34.8866 6.11156C34.6357 5.86056 34.2289 5.86048 33.978 6.11156Z" fill="#FF6316" stroke="#FF6316" stroke-width="0.3"/>
<path d="M20.4997 36.5103C20.1448 36.5103 19.8572 36.7981 19.8572 37.1529V40.2047C19.8572 40.5596 20.1448 40.8472 20.4997 40.8472C20.8547 40.8472 21.1422 40.5595 21.1422 40.2047V37.1529C21.1422 36.798 20.8547 36.5103 20.4997 36.5103Z" fill="#FF6316" stroke="#FF6316" stroke-width="0.3"/>
<path d="M20.4997 4.48993C20.8547 4.48993 21.1422 4.20221 21.1422 3.84741V0.79552C21.1422 0.44064 20.8546 0.153 20.4997 0.153C20.1448 0.153 19.8572 0.440719 19.8572 0.79552V3.84741C19.8572 4.20229 20.1448 4.48993 20.4997 4.48993Z" fill="#FF6316" stroke="#FF6316" stroke-width="0.3"/>
<path d="M32.7285 31.8204C32.4778 31.5695 32.0709 31.5695 31.8199 31.8204C31.569 32.0713 31.569 32.4781 31.82 32.729L33.978 34.887C34.1035 35.0125 34.268 35.0752 34.4323 35.0752C34.5967 35.0752 34.7612 35.0125 34.8866 34.887C35.1376 34.6361 35.1376 34.2292 34.8866 33.9783L32.7285 31.8204Z" fill="#FF6316" stroke="#FF6316" stroke-width="0.3"/>
<path d="M8.26994 9.17907C8.39544 9.30457 8.55988 9.36728 8.72433 9.36728C8.88869 9.36728 9.05322 9.30457 9.17864 9.17923C9.42956 8.92831 9.42956 8.52144 9.17864 8.27052L7.02067 6.11247C6.76983 5.86155 6.36305 5.86155 6.11197 6.11247C5.86105 6.36331 5.86105 6.77017 6.11197 7.02109L8.26994 9.17907Z" fill="#FF6316" stroke="#FF6316" stroke-width="0.3"/>
</svg>
