<svg width="16" height="98" viewBox="0 0 16 98" fill="none" xmlns="http://www.w3.org/2000/svg">
<path d="M1.18649 63.5614C-0.185334 76.1651 3.02989 86.7396 10.1463 95.1706C11.0251 96.1995 12.204 96.7425 13.9188 98C15.6979 90.8836 15.998 84.196 15.9122 77.4798C15.8479 71.3637 15.4192 65.2476 15.2263 59.1315C15.012 51.9294 13.7687 45.1847 10.9393 38.9257C8.10994 32.6667 6.75955 26.3791 8.83873 18.7769C10.4463 12.9466 10.3392 6.37329 8.83873 0C8.56008 1.00029 8.28142 2.00064 8.00277 3.00093C6.82385 7.37363 6.11651 12.1464 4.35885 16.0904C0.0290172 25.8075 -0.978421 36.0106 0.907844 46.7851C1.89385 52.4153 1.8081 57.8455 1.18649 63.5614Z" fill="#F2F2F2"/>
</svg>
