<svg width="75" height="87" viewBox="0 0 75 87" fill="none" xmlns="http://www.w3.org/2000/svg">
<g opacity="0.2">
<path d="M44.5217 61.433C45.5181 63.517 46.6122 65.5554 47.8168 67.528C49.1531 69.7218 50.8138 71.7164 52.0524 73.9558C54.1276 77.7066 56.5793 81.1462 59.3572 84.4104C60.9174 86.2464 62.6417 86.974 65.0529 86.9996C68.3452 87.0378 72.2 83.7214 71.1269 79.5366C70.6973 77.8704 69.9668 76.4955 68.7184 75.4038C67.5928 74.4137 66.3563 73.5519 65.1901 72.5984C64.42 71.9646 63.5338 71.3874 62.9777 70.5889C60.5575 67.0869 58.1484 63.5721 55.9237 59.9476C54.3918 57.4459 53.1494 54.7595 51.8111 52.1426C51.2579 51.0553 50.7876 49.9187 50.3608 48.9809C51.9629 47.9716 53.3126 47.0938 54.7026 46.2733C55.2261 45.9681 55.825 45.6742 56.4193 45.6139C58.5188 45.3883 60.0879 44.355 61.1833 42.6302C62.4897 40.5677 63.6785 38.4442 64.917 36.341C65.426 35.4766 65.8031 34.5161 66.4276 33.7514C67.2408 32.7374 68.384 31.9637 69.1146 30.9052C69.8432 29.854 70.2472 28.5717 70.811 27.3378C73.9609 27.5667 75.4086 25.5637 74.4074 22.8212C73.8066 21.1819 72.7887 19.9218 71.4576 18.7856C69.9469 17.4943 68.4236 16.1293 67.2267 14.5576C64.6479 11.1562 61.5605 8.52538 57.4322 7.31239C52.7876 5.94479 48.3807 3.98032 44.109 1.7607C40.2999 -0.216233 36.4144 -0.475557 32.4573 0.717913C28.0858 2.03305 23.7741 3.57467 19.4954 5.17157C18.0606 5.7069 16.6815 6.5772 15.4951 7.55123C12.8346 9.73914 10.3059 12.0857 7.73505 14.3825C6.89533 15.1316 6.06472 15.9065 5.30014 16.7294C2.82543 19.3871 1.22666 22.4159 1.31364 26.1703C1.32585 26.8306 1.10987 27.5269 0.899595 28.1699C-0.635428 32.8267 -0.181442 37.2924 2.06636 41.6269C2.63788 42.7345 3.15771 43.8916 3.50452 45.0829C3.99481 46.7567 4.74143 48.253 6.02825 49.4093C8.40578 51.539 10.8628 53.5715 13.2532 55.681C16.8005 58.812 20.9536 59.3115 25.4056 58.5723C27.57 58.2145 29.7109 57.7333 31.8769 57.4307C34.0337 57.1335 35.9844 56.3849 37.786 55.1759C38.767 54.5175 39.7863 53.9236 40.8814 53.2472C42.1362 56.0697 43.2534 58.7869 44.5217 61.433ZM68.4318 29.0651C68.0376 29.6927 67.6744 30.4141 67.1173 30.8516C65.4846 32.1348 64.529 33.8638 63.5696 35.6388C62.473 37.6763 61.2737 39.6564 60.0615 41.6254C59.1676 43.0805 57.9062 43.9494 56.1139 44.1671C55.1846 44.2831 54.2628 44.8627 53.4405 45.3893C52.3379 46.0951 51.3323 46.9429 49.8526 47.1617C49.5797 46.3882 49.3177 45.6331 49.0538 44.8853C50.5678 43.3607 52.2233 42.3572 54.2264 41.8332C55.6017 41.4706 56.9484 40.9128 58.2291 40.2757C59.4914 39.6496 60.2278 38.5065 60.7291 37.2411C60.5862 37.0953 60.4415 36.9568 60.2985 36.8109C60.2002 37.0442 60.1569 37.307 60.0072 37.4959C58.7928 39.0731 57.1269 39.9019 55.222 40.2239C52.7613 40.6395 50.4705 41.3721 48.4354 43.5311C47.7854 40.7917 45.6689 38.7127 47.0173 35.7455C48.7482 35.7079 50.1984 34.9887 51.2725 33.5636C52.0618 32.52 52.1752 32.1967 52.1797 30.5156C51.1874 30.7565 50.9484 31.6973 50.3651 32.269C49.7798 32.848 49.1744 33.414 48.3837 33.847C49.4884 32.0854 50.6076 30.3901 50.4858 28.0666C49.3821 28.5922 49.5765 29.7057 49.0791 30.4009C48.493 31.1988 47.9179 32.0151 47.286 32.7778C46.6984 33.4893 46.0374 34.1508 45.3245 34.9243C42.7602 31.6204 39.5488 29.1693 34.8245 28.4544C35.6346 29.7008 36.7791 29.569 37.546 30.0925C38.3074 30.6067 39.1261 31.0181 39.826 31.7436C38.4914 31.5454 37.1568 31.3472 35.8222 31.1491C35.7794 31.2868 35.7458 31.4191 35.703 31.5569C35.9912 31.7162 36.2534 31.9158 36.5601 32.0329C37.3261 32.3135 38.1088 32.528 38.871 32.8233C42.0282 34.04 44.2771 36.1214 45.2669 39.4635C45.819 41.3251 46.616 43.1159 47.0945 44.9901C48.637 51.0233 51.869 56.2886 54.7197 61.6996C56.5788 65.2234 59.0774 68.4166 61.4102 71.6773C62.1201 72.6714 63.2209 73.3892 64.154 74.2131C65.6059 75.4895 67.1003 76.722 68.5393 78.0186C71.1055 80.3293 69.0996 84.53 66.0606 85.1273C63.9843 85.5389 62.1682 85.234 60.6613 83.435C58.2425 80.5437 56.0135 77.5519 54.2255 74.2105C53.0474 72.0099 51.6096 69.9389 50.1734 67.8919C48.547 65.5774 47.0957 63.19 46.0278 60.5558C43.6022 54.5799 41.0478 48.6495 38.5707 42.6919C38.0895 41.5368 37.6783 40.3526 37.3021 39.1538C36.6496 37.0711 35.4293 35.3449 34.0063 33.7393C33.8176 33.5271 33.5275 33.4064 33.1532 33.1548C32.7423 34.8031 34.0505 35.6597 34.4244 36.9909C30.1074 37.9991 27.2739 35.3232 23.9878 32.7045C24.2372 33.386 24.2616 33.7521 24.4594 33.9589C27.004 36.6631 29.8825 38.6071 33.8558 38.028C34.5385 37.9276 34.5422 37.9441 35.342 38.4916C34.064 39.8883 32.2516 39.0758 30.7856 39.5798C31.5366 41.398 32.178 41.5218 35.9098 40.5997C36.9521 43.1805 38.0073 45.7724 39.0405 48.3274C37.3573 49.8404 35.5575 50.5803 33.3631 50.6254C32.0883 50.6536 30.8245 51.1933 29.5724 51.5638C29.0403 51.7181 28.5552 52.0565 28.0339 52.2606C25.7481 53.1274 23.6352 53.0054 21.7806 51.2198C20.1477 49.6392 18.2892 48.3925 16.2607 47.353C14.6397 46.5265 13.913 45.5986 13.3305 44.0109C16.7278 42.9882 19.776 41.3996 21.9631 38.4576C18.9368 40.0831 16.3223 42.7366 12.3458 42.2194C12.2084 39.6494 11.1103 37.7195 9.52141 36.1813C11.4744 34.3145 13.3259 32.5704 15.1553 30.7896C17.5866 28.426 20.4631 27.0206 23.8519 26.8017C27.1837 26.5917 30.4253 25.905 33.629 25.0288C34.3526 24.8292 35.0836 24.6314 35.7598 24.3103C37.7295 23.3944 38.5997 21.3855 37.9804 19.2955C37.7407 18.4835 37.4494 17.6897 37.1747 16.8922C37.2871 16.8191 37.4088 16.7404 37.5213 16.6673C38.1449 17.1387 38.8405 17.5422 39.3902 18.0888C41.2281 19.9093 43.3006 20.9912 45.9806 20.4827C47.223 20.2427 48.1437 20.9304 48.6055 21.8849C50.1422 25.0452 52.9726 25.6077 55.9905 25.7092C57.8756 25.7733 59.7588 25.3519 61.3977 24.352C62.8799 23.4453 64.484 23.3833 66.1135 23.4373C67.4394 23.4846 68.5356 23.9743 69.2022 25.2312C69.4341 25.6735 69.7675 26.0555 70.0108 26.3912C69.4557 27.283 68.974 28.1935 68.4318 29.0651ZM20.3715 56.1199C18.9751 56.7198 17.5828 56.6869 16.2787 55.7219C12.9626 53.252 9.51534 50.9289 6.81994 47.7403C6.07469 46.8547 5.60071 45.7327 5.07865 44.6768C4.66615 43.8366 4.48033 42.8739 3.99957 42.0867C2.39092 39.4559 1.58697 36.5836 1.28937 33.566C1.17252 32.3627 1.4016 31.122 1.4977 29.5424C1.97917 30.142 2.25566 30.4704 2.55409 30.8357C2.69072 30.6983 2.84928 30.5977 2.83295 30.5388C2.47414 29.1175 2.6505 27.7148 2.72768 26.2712C2.91406 22.7037 4.55423 19.9123 7.07361 17.6025C10.2575 14.679 13.5219 11.8385 16.8211 9.04606C17.7585 8.25134 18.8684 7.54741 20.0159 7.12687C24.3609 5.5155 28.6951 3.85443 33.1327 2.5561C37.4267 1.29952 41.7807 1.68568 45.6787 3.99034C49.2298 6.08953 53.0487 7.41171 56.912 8.68256C60.6301 9.90871 63.4743 12.1726 65.8594 15.2275C67.1938 16.9357 68.8214 18.4446 70.4492 19.8909C71.5528 20.8754 72.5109 21.8778 72.9948 23.2996C73.4533 24.6366 73.4642 24.6551 72.1907 25.8182C71.2498 25.6105 70.7578 24.8674 70.3082 24.1116C69.5844 22.8949 68.5294 22.2122 67.1508 21.9716C64.8808 21.5749 62.7174 21.6826 60.5869 22.8002C57.9423 24.1862 55.1138 24.571 52.2433 23.4272C51.4334 23.1041 50.607 22.7533 50.256 21.7017C51.3734 20.4755 51.9528 19.0265 51.1972 16.9801C50.5802 18.177 50.0706 19.1665 49.5611 20.1559C48.4199 19.8739 48.2489 19.3766 48.6036 18.473C49.5063 16.1516 48.9687 13.8633 48.5543 11.5828C48.3998 11.5749 48.2453 11.5669 48.0909 11.559C48.071 11.9452 48.0457 12.3221 48.0258 12.7083C47.9839 13.5818 47.964 14.4609 47.8908 15.3343C47.56 19.1625 45.5348 19.6809 42.0926 18.4466C41.4754 18.2272 40.9459 17.6937 40.4252 17.2484C39.4774 16.4208 38.5664 15.6026 37.282 15.2685C36.8116 15.149 36.3721 14.6305 36.085 14.1898C35.5766 13.4191 35.1898 12.5697 34.4587 11.8441C34.6743 12.7204 34.9137 13.595 35.0962 14.4785C35.304 15.4468 35.4622 16.4259 35.6296 17.3995C35.7555 18.1357 35.8318 18.8828 35.9817 19.6172C36.3158 21.2591 35.8928 22.2158 34.28 22.6199C31.4301 23.3357 28.5457 23.9096 25.6632 24.4763C24.7484 24.6586 23.7939 24.6274 22.8628 24.7508C20.8532 25.0228 19.0396 24.5543 17.8116 22.92C16.7026 21.4333 15.8371 19.7581 14.8923 18.1489C14.7187 17.8465 14.6483 17.4766 14.5374 17.1432C13.8846 20.5141 14.8405 22.6035 18.3941 25.9865C16.0562 26.9966 14.2293 28.5826 12.6551 30.4674C11.9696 31.287 11.2787 32.0974 10.6152 32.9225C9.39001 34.45 7.90418 34.8472 6.1103 34.0238C5.39605 33.6937 4.66699 33.3912 3.68091 32.9607C4.60309 35.2137 6.33737 35.7481 8.02476 36.0359C8.58217 36.9834 9.12921 37.7561 9.49388 38.5999C9.93333 39.6113 10.2236 40.6866 10.5561 41.7491C11.4449 44.5648 12.3244 47.4172 15.1917 48.9124C17.2091 49.9647 19.0325 51.2573 20.7226 52.7664C21.4046 53.3777 22.2398 53.8168 23.2433 54.4864C22.1908 55.0876 21.3277 55.7134 20.3715 56.1199ZM36.5554 54.2296C35.1027 55.1125 33.528 55.6436 31.8185 55.8744C29.4685 56.1929 27.1346 56.6329 24.7937 56.9772C23.9085 57.1044 23.0035 57.1249 21.8793 57.2071C22.6958 56.2722 23.2578 55.5386 23.9131 54.8991C24.1919 54.6335 24.6633 54.4716 25.0515 54.4528C27.0236 54.3591 28.8172 53.7975 30.5717 52.8661C31.5854 52.3255 32.819 51.9972 33.9688 51.9372C35.7348 51.8538 37.2706 51.3832 38.6468 50.3087C38.881 50.1257 39.1848 50.0385 39.5939 49.8451C39.8874 50.5378 40.1408 51.1421 40.4142 51.7905C39.0775 52.6481 37.8292 53.4656 36.5554 54.2296Z" fill="white"/>
<path d="M52.2818 68.1849C52.8929 69.0443 53.526 69.9093 53.9823 70.8546C54.8546 72.6568 55.6828 74.479 56.3875 76.3559C57.3727 78.9769 59.5435 80.3186 61.7734 81.6127C62.0597 81.7793 62.4496 81.7845 62.9292 81.8985C62.7509 80.4135 61.9395 79.511 60.9505 78.8764C59.4111 77.8829 58.401 76.4996 57.5424 74.9513C56.7221 73.4676 55.8743 72.0003 55.1148 70.4929C53.9756 68.2317 52.0817 66.6318 50.3409 64.8907C50.5933 66.238 51.5445 67.1447 52.2818 68.1849Z" fill="white"/>
<path d="M62.5373 33.3888C63.6588 31.5611 64.5713 30.0637 65.5447 28.48C63.4831 28.8953 62.214 30.842 62.5373 33.3888Z" fill="white"/>
</g>
</svg>
