<svg width="24" height="25" viewBox="0 0 24 25" fill="none" xmlns="http://www.w3.org/2000/svg">
<g clip-path="url(#clip0_1_9445)">
<path d="M23.9976 7.06849C23.9413 5.79103 23.7347 4.91279 23.4388 4.15179C23.1335 3.34399 22.6639 2.62078 22.0485 2.01957C21.4473 1.409 20.7193 0.934565 19.9209 0.634051C19.1555 0.338124 18.2818 0.131544 17.0044 0.0752201C15.7174 0.0141267 15.3088 0 12.0446 0C8.78041 0 8.37184 0.0141267 7.08961 0.0704501C5.81215 0.126773 4.93391 0.333537 4.17309 0.629281C3.36511 0.934565 2.6419 1.40423 2.04069 2.01957C1.43012 2.62078 0.955866 3.34876 0.655169 4.1472C0.359242 4.91279 0.152662 5.78626 0.0963383 7.06372C0.0352449 8.35072 0.0211182 8.7593 0.0211182 12.0235C0.0211182 15.2877 0.0352449 15.6962 0.0915683 16.9785C0.147892 18.2559 0.354655 19.1342 0.650582 19.8952C0.955866 20.703 1.43012 21.4262 2.04069 22.0274C2.6419 22.638 3.36988 23.1124 4.16832 23.4129C4.93391 23.7088 5.80738 23.9154 7.08502 23.9717C8.36707 24.0283 8.77583 24.0422 12.04 24.0422C15.3042 24.0422 15.7128 24.0283 16.995 23.9717C18.2725 23.9154 19.1507 23.7088 19.9115 23.4129C21.5273 22.7882 22.8048 21.5108 23.4294 19.8952C23.7252 19.1296 23.932 18.2559 23.9883 16.9785C24.0446 15.6962 24.0587 15.2877 24.0587 12.0235C24.0587 8.7593 24.054 8.35072 23.9976 7.06849ZM21.8326 16.8845C21.7808 18.0587 21.5836 18.6928 21.4192 19.1155C21.0152 20.1629 20.184 20.9941 19.1366 21.3981C18.7139 21.5625 18.0752 21.7597 16.9057 21.8113C15.6376 21.8678 15.2572 21.8817 12.0494 21.8817C8.84151 21.8817 8.45642 21.8678 7.1929 21.8113C6.01873 21.7597 5.38468 21.5625 4.96198 21.3981C4.44076 21.2055 3.96632 20.9002 3.58123 20.501C3.18202 20.1111 2.87673 19.6415 2.6841 19.1202C2.51971 18.6975 2.32249 18.0587 2.27093 16.8893C2.21443 15.6212 2.20048 15.2407 2.20048 12.0328C2.20048 8.82498 2.21443 8.43989 2.27093 7.17655C2.32249 6.00239 2.51971 5.36833 2.6841 4.94563C2.87673 4.42423 3.18202 3.94998 3.586 3.5647C3.97568 3.16548 4.44535 2.8602 4.96675 2.66775C5.38945 2.50336 6.02827 2.30614 7.19767 2.2544C8.46577 2.19808 8.84628 2.18395 12.054 2.18395C15.2666 2.18395 15.6469 2.19808 16.9104 2.2544C18.0846 2.30614 18.7186 2.50336 19.1413 2.66775C19.6626 2.8602 20.137 3.16548 20.5221 3.5647C20.9213 3.95456 21.2266 4.42423 21.4192 4.94563C21.5836 5.36833 21.7808 6.00697 21.8326 7.17655C21.8889 8.44466 21.903 8.82498 21.903 12.0328C21.903 15.2407 21.8889 15.6164 21.8326 16.8845Z" fill="white"/>
<path d="M12.0447 5.84717C8.63498 5.84717 5.86853 8.61344 5.86853 12.0233C5.86853 15.4332 8.63498 18.1994 12.0447 18.1994C15.4545 18.1994 18.2208 15.4332 18.2208 12.0233C18.2208 8.61344 15.4545 5.84717 12.0447 5.84717ZM12.0447 16.0296C9.83263 16.0296 8.03836 14.2355 8.03836 12.0233C8.03836 9.81109 9.83263 8.01699 12.0447 8.01699C14.2569 8.01699 16.051 9.81109 16.051 12.0233C16.051 14.2355 14.2569 16.0296 12.0447 16.0296Z" fill="white"/>
<path d="M19.9069 5.60297C19.9069 6.39921 19.2613 7.04482 18.4649 7.04482C17.6687 7.04482 17.0231 6.39921 17.0231 5.60297C17.0231 4.80656 17.6687 4.16113 18.4649 4.16113C19.2613 4.16113 19.9069 4.80656 19.9069 5.60297Z" fill="white"/>
</g>
<defs>
<clipPath id="clip0_1_9445">
<rect width="24" height="24.0423" fill="white"/>
</clipPath>
</defs>
</svg>
