<svg width="98" height="18" viewBox="0 0 98 18" fill="none" xmlns="http://www.w3.org/2000/svg">
<path d="M9.31008 13.4111L12.8566 15.6577C13.31 15.9446 13.8725 15.5177 13.7381 14.9884L12.7138 10.9581C12.6848 10.8458 12.6882 10.7276 12.7234 10.6172C12.7586 10.5067 12.8243 10.4085 12.9129 10.3337L16.0933 7.68711C16.5106 7.33949 16.2958 6.64593 15.7586 6.61105L11.6056 6.34105C11.4938 6.33312 11.3866 6.29359 11.2964 6.22707C11.2061 6.16055 11.1367 6.06977 11.096 5.9653L9.5469 2.06493C9.50472 1.95408 9.42984 1.85867 9.33219 1.79136C9.23455 1.72404 9.11875 1.68799 9.00015 1.68799C8.88155 1.68799 8.76575 1.72404 8.6681 1.79136C8.57046 1.85867 8.49558 1.95408 8.4534 2.06493L6.90427 5.9653C6.86372 6.06988 6.79429 6.16077 6.70406 6.2274C6.61383 6.29402 6.50652 6.33364 6.39465 6.34161L2.24171 6.61161C1.70508 6.64593 1.48908 7.33949 1.90702 7.68711L5.0874 10.3342C5.17588 10.409 5.2415 10.5072 5.27673 10.6175C5.31195 10.7278 5.31534 10.8459 5.28652 10.9581L4.33702 14.6959C4.17558 15.3309 4.85115 15.8434 5.39452 15.4986L8.69077 13.4111C8.78342 13.3522 8.89093 13.3209 9.00071 13.3209C9.11049 13.3209 9.218 13.3522 9.31065 13.4111H9.31008Z" fill="#FF6316"/>
<path d="M29.3101 13.4111L32.8566 15.6577C33.31 15.9446 33.8725 15.5177 33.7381 14.9884L32.7138 10.9581C32.6848 10.8458 32.6882 10.7276 32.7234 10.6172C32.7586 10.5067 32.8243 10.4085 32.9129 10.3337L36.0933 7.68711C36.5106 7.33949 36.2958 6.64593 35.7586 6.61105L31.6056 6.34105C31.4938 6.33312 31.3866 6.29359 31.2964 6.22707C31.2061 6.16055 31.1367 6.06977 31.096 5.9653L29.5469 2.06493C29.5047 1.95408 29.4298 1.85867 29.3322 1.79136C29.2345 1.72404 29.1187 1.68799 29.0001 1.68799C28.8815 1.68799 28.7657 1.72404 28.6681 1.79136C28.5705 1.85867 28.4956 1.95408 28.4534 2.06493L26.9043 5.9653C26.8637 6.06988 26.7943 6.16077 26.7041 6.2274C26.6138 6.29402 26.5065 6.33364 26.3946 6.34161L22.2417 6.61161C21.7051 6.64593 21.4891 7.33949 21.907 7.68711L25.0874 10.3342C25.1759 10.409 25.2415 10.5072 25.2767 10.6175C25.3119 10.7278 25.3153 10.8459 25.2865 10.9581L24.337 14.6959C24.1756 15.3309 24.8511 15.8434 25.3945 15.4986L28.6908 13.4111C28.7834 13.3522 28.8909 13.3209 29.0007 13.3209C29.1105 13.3209 29.218 13.3522 29.3106 13.4111H29.3101Z" fill="#FF6316"/>
<path d="M49.3101 13.4111L52.8566 15.6577C53.31 15.9446 53.8725 15.5177 53.7381 14.9884L52.7138 10.9581C52.6848 10.8458 52.6882 10.7276 52.7234 10.6172C52.7586 10.5067 52.8243 10.4085 52.9129 10.3337L56.0933 7.68711C56.5106 7.33949 56.2958 6.64593 55.7586 6.61105L51.6056 6.34105C51.4938 6.33312 51.3866 6.29359 51.2964 6.22707C51.2061 6.16055 51.1367 6.06977 51.096 5.9653L49.5469 2.06493C49.5047 1.95408 49.4298 1.85867 49.3322 1.79136C49.2345 1.72404 49.1187 1.68799 49.0001 1.68799C48.8815 1.68799 48.7657 1.72404 48.6681 1.79136C48.5705 1.85867 48.4956 1.95408 48.4534 2.06493L46.9043 5.9653C46.8637 6.06988 46.7943 6.16077 46.7041 6.2274C46.6138 6.29402 46.5065 6.33364 46.3946 6.34161L42.2417 6.61161C41.7051 6.64593 41.4891 7.33949 41.907 7.68711L45.0874 10.3342C45.1759 10.409 45.2415 10.5072 45.2767 10.6175C45.3119 10.7278 45.3153 10.8459 45.2865 10.9581L44.337 14.6959C44.1756 15.3309 44.8511 15.8434 45.3945 15.4986L48.6908 13.4111C48.7834 13.3522 48.8909 13.3209 49.0007 13.3209C49.1105 13.3209 49.218 13.3522 49.3106 13.4111H49.3101Z" fill="#FF6316"/>
<path d="M69.3101 13.4111L72.8566 15.6577C73.31 15.9446 73.8725 15.5177 73.7381 14.9884L72.7138 10.9581C72.6848 10.8458 72.6882 10.7276 72.7234 10.6172C72.7586 10.5067 72.8243 10.4085 72.9129 10.3337L76.0933 7.68711C76.5106 7.33949 76.2958 6.64593 75.7586 6.61105L71.6056 6.34105C71.4938 6.33312 71.3866 6.29359 71.2964 6.22707C71.2061 6.16055 71.1367 6.06977 71.096 5.9653L69.5469 2.06493C69.5047 1.95408 69.4298 1.85867 69.3322 1.79136C69.2345 1.72404 69.1187 1.68799 69.0001 1.68799C68.8815 1.68799 68.7657 1.72404 68.6681 1.79136C68.5705 1.85867 68.4956 1.95408 68.4534 2.06493L66.9043 5.9653C66.8637 6.06988 66.7943 6.16077 66.7041 6.2274C66.6138 6.29402 66.5065 6.33364 66.3946 6.34161L62.2417 6.61161C61.7051 6.64593 61.4891 7.33949 61.907 7.68711L65.0874 10.3342C65.1759 10.409 65.2415 10.5072 65.2767 10.6175C65.3119 10.7278 65.3153 10.8459 65.2865 10.9581L64.337 14.6959C64.1756 15.3309 64.8511 15.8434 65.3945 15.4986L68.6908 13.4111C68.7834 13.3522 68.8909 13.3209 69.0007 13.3209C69.1105 13.3209 69.218 13.3522 69.3106 13.4111H69.3101Z" fill="#FF6316"/>
<path d="M89.3101 13.4111L92.8566 15.6577C93.31 15.9446 93.8725 15.5177 93.7381 14.9884L92.7138 10.9581C92.6848 10.8458 92.6882 10.7276 92.7234 10.6172C92.7586 10.5067 92.8243 10.4085 92.9129 10.3337L96.0933 7.68711C96.5106 7.33949 96.2958 6.64593 95.7586 6.61105L91.6056 6.34105C91.4938 6.33312 91.3866 6.29359 91.2964 6.22707C91.2061 6.16055 91.1367 6.06977 91.096 5.9653L89.5469 2.06493C89.5047 1.95408 89.4298 1.85867 89.3322 1.79136C89.2345 1.72404 89.1187 1.68799 89.0001 1.68799C88.8815 1.68799 88.7657 1.72404 88.6681 1.79136C88.5705 1.85867 88.4956 1.95408 88.4534 2.06493L86.9043 5.9653C86.8637 6.06988 86.7943 6.16077 86.7041 6.2274C86.6138 6.29402 86.5065 6.33364 86.3946 6.34161L82.2417 6.61161C81.7051 6.64593 81.4891 7.33949 81.907 7.68711L85.0874 10.3342C85.1759 10.409 85.2415 10.5072 85.2767 10.6175C85.3119 10.7278 85.3153 10.8459 85.2865 10.9581L84.337 14.6959C84.1756 15.3309 84.8511 15.8434 85.3945 15.4986L88.6908 13.4111C88.7834 13.3522 88.8909 13.3209 89.0007 13.3209C89.1105 13.3209 89.218 13.3522 89.3106 13.4111H89.3101Z" fill="#CCCCCC"/>
</svg>
