<svg width="53" height="167" viewBox="0 0 53 167" fill="none" xmlns="http://www.w3.org/2000/svg">
<path d="M32.5105 164.647C37.3661 168.069 41.6869 167.841 45.2804 163.42C49.2804 158.486 52.1252 152.355 52.4461 145.025C52.7242 138.75 52.2536 132.362 51.8044 126.059C51.2055 117.161 49.7937 108.319 49.6868 99.4497C49.4515 81.2539 44.9382 65.853 34.8848 53.4467C30.4785 47.9994 26.0935 42.552 21.623 37.1902C17.4733 32.2277 14.4787 26.21 11.7622 19.8214C10.0296 15.8001 7.84777 12.0925 5.73015 8.35638C4.19007 5.64697 2.45747 3.10869 0.489582 0C-0.665482 4.19246 0.339852 7.01593 2.28635 9.2405C5.79432 13.2048 7.39858 18.5381 9.34508 23.8713C11.5696 29.9176 14.4787 35.7072 17.7514 40.8693C22.4144 48.2275 27.655 54.9298 32.7244 61.8316C38.7564 70.0454 42.3072 79.7993 43.2911 91.2073C44.1895 101.503 45.1093 111.77 46.1146 122.95C44.6173 122.922 43.4195 122.893 42.3072 122.893C42.0505 122.237 41.7297 121.809 41.7938 121.496C43.4195 111.999 40.3607 107.007 33.0239 107.692C30.4143 107.92 27.8689 109.061 26.0507 109.574C22.8422 105.867 19.8048 102.815 17.2166 99.1645C15.099 96.1699 13.5375 92.4337 11.5696 88.7261C11.0991 93.6886 12.0188 96.7117 14.9921 101.189C16.5108 103.471 18.1364 105.667 19.4412 108.12C21.4305 111.884 22.4144 116.105 21.9866 120.811C21.2166 129.681 22.7353 137.667 27.0775 144.568C28.4036 146.679 28.8742 148.818 28.5106 151.699C27.5908 159 28.6175 161.909 32.5105 164.647ZM44.3606 130.194C48.3178 132.191 48.4675 132.989 47.3125 139.264C42.1147 139.435 37.0666 139.207 33.9437 131.25C37.4303 126.458 40.981 128.512 44.3606 130.194ZM26.1363 122.066C26.1363 119.357 26.1577 117.132 26.1577 114.366C30.3929 113.881 34.3073 111.428 38.3714 116.22C35.5479 123.806 30.8207 121.895 26.1363 122.066ZM27.4625 130.423C27.27 129.995 27.548 129.168 27.6122 128.255C28.7245 128.312 29.7084 128.341 30.6924 128.398C30.8207 138.551 34.7137 142.515 47.3553 145.595C47.5478 151.185 45.3018 155.406 42.6067 159.114C40.8741 161.509 38.6495 161.652 36.2538 160.083C33.7726 158.429 33.7084 156.034 34.3501 153.011C35.3768 148.077 34.3929 143.856 31.9972 139.891C30.2646 136.982 28.8956 133.645 27.4625 130.423Z" fill="#F2F2F2"/>
</svg>
