<svg width="46" height="208" viewBox="0 0 46 208" fill="none" xmlns="http://www.w3.org/2000/svg">
<path d="M41.7197 0C41.2933 2.13182 40.8669 4.26364 40.4193 6.39546C38.2448 17.0261 36.3901 27.7421 32.2544 37.52C29.3125 44.4555 25.2194 49.7424 20.9984 55.0862C16.5429 60.7426 12.2153 66.598 7.973 72.5102C4.221 77.7403 2.345 84.2779 0.938 91.2134C0.639545 92.6914 0.298454 94.1695 0 95.6475V136.92C3.26168 143.059 8.27145 144.822 13.3665 146.356C18.7387 147.977 22.043 143.713 20.9344 136.522C20.5934 134.276 19.8685 132.144 19.3356 130.013C25.7097 124.697 26.733 117.819 22.2135 111.679C18.5042 106.648 9.46527 106.364 5.64932 111.224C4.221 113.072 3.79464 115.203 5.09504 117.506C5.94777 118.984 6.90709 120.348 7.973 122.025C5.45745 122.708 3.11245 123.361 0.127909 124.157C2.15314 115.402 4.11441 107.017 6.26754 97.7225C8.86836 99.627 11.0641 101.531 13.4304 102.924C15.9886 104.402 18.6747 105.909 21.4034 106.477C25.4965 107.33 29.6962 107.472 31.0606 100.025C32.2331 100.991 32.9366 101.56 33.9812 102.413C29.7602 108.268 29.1846 114.919 30.2931 122.253C30.6555 124.64 30.1439 127.369 29.6749 129.814C28.2892 137.289 26.733 144.708 25.0915 153.008C24.0256 152.724 22.4054 152.07 20.7639 151.928C17.4596 151.615 14.1126 151.075 10.851 151.53C8.39936 151.871 6.20359 153.974 5.64932 157.698C5.13768 161.08 6.52336 163.525 8.37804 165.571C9.29472 166.566 10.2114 167.561 11.4265 168.897C10.1901 170.489 9.1455 171.711 8.18618 173.018C6.54468 175.264 5.05241 177.737 6.07568 181.119C7.14159 184.615 9.10286 187.145 11.9808 187.316C14.4111 187.486 16.8627 186.776 19.2929 186.435C20.2949 186.292 21.2969 186.037 22.7465 185.752C22.2349 187.657 21.8298 188.908 21.5527 190.187C20.2309 196.611 22.5546 200.732 27.5857 200.903C30.89 201.016 33.8533 199.68 36.3262 196.724C37.4987 195.331 38.5859 193.825 39.801 192.262C40.6324 196.923 40.7817 197.207 36.0277 201.585C33.6614 203.745 30.6342 204.626 27.5644 206.246C33.6827 209.941 41.3999 207.582 44.3844 201.187C45.2585 199.311 45.6848 196.781 45.6848 194.564C45.6848 186.406 43.2972 179.528 38.863 173.9C34.6847 168.641 31.5935 162.501 30.1865 154.912C29.1206 149.199 29.1846 143.77 31.4656 138.54C34.4075 131.775 35.3882 124.697 34.1304 116.852C33.1071 110.513 34.1304 104.886 39.1402 101.503C41.9115 99.627 42.5724 95.9603 41.3786 91.0145C40.8243 88.7121 40.4619 86.9214 41.3146 84.4485C41.8476 82.8567 41.3359 80.3269 40.803 78.4509C38.2661 69.2415 34.8979 63.6988 27.7136 56.7348C38.3727 40.6183 43.4251 21.773 41.7197 0ZM7.2695 114.237C12.0661 111.309 16.0526 113.413 19.8046 115.8C20.636 116.312 21.041 119.552 20.6999 121.201C20.4868 122.281 18.4829 123.617 17.4809 123.39C13.4091 122.423 9.849 120.092 7.2695 114.237ZM11.6397 128.904C15.3278 131.348 17.6514 135.1 17.1185 141.61C8.93231 141.439 3.15509 138 1.70545 129.984C4.71132 125.237 8.22882 126.658 11.6397 128.904ZM9.48659 158.153C12.9614 155.282 18.6321 154.628 23.0236 156.902C24.857 157.84 27.2233 158.522 27.0528 162.786C18.2057 166.879 11.4692 165.003 9.48659 158.153ZM23.6632 178.447C20.2736 181.972 16.2444 183.763 11.9382 183.308C10.8723 183.194 9.33736 181.233 9.12418 179.812C8.93232 178.504 9.97691 175.918 10.9149 175.463C14.1766 173.9 17.6301 172.933 21.0197 171.881C21.8085 171.654 22.7252 172.08 23.1942 172.137C25.0702 173.701 25.3473 176.714 23.6632 178.447ZM38.5219 183.45C39.396 185.667 39.2468 187.429 37.6905 188.936C35.8572 190.698 34.1091 192.716 32.1265 194.194C30.1226 195.673 27.9055 196.525 25.4539 193.967C26.8822 186.975 29.9307 183.024 34.5354 181.603C36.2409 181.034 37.5839 181.091 38.5219 183.45ZM33.5548 175.662C32.0625 176.429 30.9753 176.969 30.6342 177.14C29.952 174.127 29.3125 171.313 28.5237 167.902C31.2524 169.096 31.7854 172.706 33.5548 175.662ZM20.6999 67.0244C21.2542 70.2648 21.7659 73.3345 22.2349 76.2054C20.9558 78.8204 19.6767 81.4355 18.4829 83.8799C15.5623 84.0505 12.8122 84.1927 9.52922 84.3632C12.1727 77.0297 15.6902 71.5723 20.6999 67.0244ZM26.1787 99.0585C25.795 100.025 24.1322 100.736 23.1729 100.508C18.5042 99.3996 14.1126 97.2962 9.89163 92.6062C15.7115 89.3374 21.9577 90.4744 25.2407 95.0507C25.9016 96.0171 26.5411 98.1773 26.1787 99.0585ZM36.7312 96.4151C29.9307 93.8284 25.326 88.9111 24.3667 83.1978C32.3823 83.3683 37.6479 88.9963 36.7312 96.4151ZM37.7971 83.2831C31.3164 79.3037 25.3473 75.7791 25.795 63.3861C32.3823 68.1045 35.3882 74.8979 37.7971 83.2831Z" fill="#F2F2F2"/>
</svg>
