<svg width="144" height="435" viewBox="0 0 144 435" fill="none" xmlns="http://www.w3.org/2000/svg">
<path d="M48.7752 430.426C57.5816 426.427 66.1327 421.464 74.8114 416.982C84.2984 412.076 93.6153 406.744 103.889 404.758C117.099 402.234 126.692 391.854 133.499 376.992C141.221 360.117 143.688 341.483 143.986 321.857C144.305 301.266 139.157 282.718 133.903 264.055C132.861 260.368 131.032 257.078 129.585 253.618C123.246 238.473 116.567 223.583 110.675 208.126C103.953 190.513 101.401 171.312 100.72 151.714C100.039 132.06 100.082 112.348 99.1246 92.6933C98.5077 79.817 96.6146 66.9691 92.0412 55.3975C86.0427 40.309 77.0236 30.3256 63.6652 28.9075C60.2405 28.5388 56.6244 23.5188 56.1351 17.9883C55.9012 15.2372 56.1139 12.3726 56.3053 9.59314C56.5606 5.73594 55.8373 2.44599 53.1359 0.715923C50.3281 -1.09923 47.8819 0.801011 46.0738 3.46702C44.84 5.28218 44.053 7.77799 43.3936 10.132C42.564 13.1951 42.1386 16.4567 41.3941 19.5765C40.7347 22.2709 39.3308 23.2352 37.2674 22.0156C22.5477 13.4504 11.0398 21.108 0.829583 34.977C0.553056 35.374 0.297799 35.7711 0.0212714 36.1682V51.4552C1.95697 45.9814 4.55207 40.9046 7.87041 36.31C17.2511 23.3486 29.2694 21.1364 40.9048 30.042C43.032 31.687 45.1378 33.5022 47.4352 34.6366C49.307 35.5726 51.4342 35.7995 53.455 35.9413C58.475 36.3384 63.7503 33.8425 68.4938 37.0474C72.3652 39.6567 75.7686 43.4855 79.4486 46.6053C83.1923 49.7819 85.362 54.4899 87.1063 59.7085C90.7224 70.5427 92.7006 82.0292 93.2537 93.7427C94.1045 112.206 94.296 130.727 94.7427 149.218C95.317 171.965 98.5077 193.945 106.293 214.366C110.76 226.051 115.397 237.651 120.545 248.825C125.65 259.858 129.692 271.373 133.01 283.568C139.157 306.229 139.391 328.947 135.201 352.034C131.84 370.554 123.204 382.353 109.271 387.032C103.145 389.103 96.9974 391.145 90.7862 392.846C77.8319 396.392 65.1755 400.901 53.1997 408.786C48.7114 411.735 43.6063 413.38 38.6288 414.628C32.5027 416.188 26.4403 415.281 20.7396 411.083C16.9107 408.247 12.8054 406.063 7.89168 402.972C5.16894 401.043 2.53129 398.916 0 396.534V406.035C1.02103 406.886 2.02078 407.708 3.06308 408.502C7.63642 411.962 12.6565 414.345 17.2724 417.748C24.0366 422.74 31.2264 423.761 38.7139 422.683C45.2655 421.747 51.4129 418.968 57.2838 415.139C66.0263 409.438 75.0667 405.042 84.6813 402.83C85.7236 402.603 86.7872 402.603 87.8508 402.49C73.6202 410.544 59.9853 420.074 44.9039 424.186C39.4371 425.661 33.6513 427.221 28.2271 426.342C18.1019 424.612 8.59363 420.698 0.0850855 413.466V422.513C7.55134 427.136 15.0601 431.419 23.3134 433.376C32.1198 435.446 40.5645 434.17 48.7752 430.426ZM44.3508 25.8161C45.4569 21.1931 46.4354 17.024 47.4139 12.8831C47.9457 10.6709 48.3711 8.43031 49.0092 6.27482C49.6048 4.26113 50.6471 3.29682 52.7317 5.25379C51.2215 12.9682 49.9239 21.1931 54.2845 28.5956C50.2642 30.1555 50.2642 30.1555 44.3508 25.8161ZM113.44 393.924C113.525 394.35 113.61 394.775 113.695 395.201C109.207 396.846 104.74 398.49 100.252 400.135C100.146 399.597 100.039 399.086 99.9329 398.547C104.442 396.987 108.952 395.456 113.44 393.924Z" fill="#F2F2F2"/>
</svg>
