<svg width="18" height="18" viewBox="0 0 18 18" fill="none" xmlns="http://www.w3.org/2000/svg">
<path d="M9.30993 13.4111L12.8565 15.6577C13.3099 15.9446 13.8724 15.5177 13.7379 14.9884L12.7136 10.9581C12.6847 10.8458 12.688 10.7276 12.7232 10.6172C12.7585 10.5067 12.8242 10.4085 12.9127 10.3337L16.0931 7.68712C16.5105 7.33949 16.2956 6.64593 15.7584 6.61105L11.6055 6.34105C11.4937 6.33312 11.3864 6.29359 11.2962 6.22707C11.206 6.16055 11.1365 6.06977 11.0959 5.9653L9.54674 2.06493C9.50456 1.95408 9.42969 1.85867 9.33204 1.79136C9.2344 1.72404 9.1186 1.68799 8.99999 1.68799C8.88139 1.68799 8.76559 1.72404 8.66795 1.79136C8.5703 1.85867 8.49543 1.95408 8.45324 2.06493L6.90412 5.9653C6.86357 6.06988 6.79413 6.16077 6.70391 6.2274C6.61368 6.29402 6.50637 6.33364 6.39449 6.34162L2.24156 6.61161C1.70493 6.64593 1.48893 7.33949 1.90687 7.68712L5.08724 10.3342C5.17573 10.409 5.24135 10.5072 5.27657 10.6175C5.31179 10.7278 5.31519 10.8459 5.28637 10.9581L4.33687 14.6959C4.17543 15.3309 4.85099 15.8434 5.39437 15.4986L8.69062 13.4111C8.78326 13.3522 8.89077 13.3209 9.00056 13.3209C9.11034 13.3209 9.21785 13.3522 9.31049 13.4111H9.30993Z" fill="#FF6316"/>
</svg>
